<svg xmlns="http://www.w3.org/2000/svg" xmlns:xlink="http://www.w3.org/1999/xlink" viewBox="0 0 1072.09 771.93"><defs><style>.cls-1{fill:#5b95af;}.cls-2{fill:#128779;}.cls-3,.cls-8{fill:#6ec48b;}.cls-4{fill:#fff;}.cls-5{fill:#f5f6fa;}.cls-6{font-size:41.83px;font-family:ProximaNova-Regular, Proxima Nova;letter-spacing:0.02em;}.cls-16,.cls-6,.cls-7{fill:#203459;}.cls-7{font-size:31.98px;font-family:ProximaNova-Bold, Proxima Nova;font-weight:700;letter-spacing:0.02em;}.cls-8{font-size:49.21px;font-family:ProximaNova-Extrabld, Proxima Nova;letter-spacing:0.02em;}.cls-9{fill:#231f20;}.cls-10{fill:#def4dc;}.cls-11{fill:url(#未命名的渐变_42);}.cls-12,.cls-13{fill:none;stroke:#ccd2dd;stroke-miterlimit:2;stroke-width:0.87px;}.cls-13{stroke-dasharray:1.08 1.08;}.cls-14{fill:#ff957c;}.cls-15{fill:#dee6ee;}.cls-16{font-size:66.34px;font-family:ProximaNova-Semibold, Proxima Nova;font-weight:600;letter-spacing:0.02em;}.cls-17{fill:#406eb3;}.cls-18{fill:#632678;}.cls-19{fill:#982881;}.cls-20{fill:#ba2f7d;}.cls-21{fill:#26478d;}.cls-22{fill:#6cd4cd;}.cls-23{fill:#4b4b4b;}.cls-24{fill:#f5856e;}.cls-25{fill:#4197b2;}.cls-26{fill:#82cc2c;}.cls-27{fill:#fefefe;}</style><linearGradient id="未命名的渐变_42" x1="530.86" y1="609.06" x2="830.3" y2="609.06" gradientUnits="userSpaceOnUse"><stop offset="0" stop-color="#29c3b4"/><stop offset="1" stop-color="#69ee80"/></linearGradient></defs><g id="Layer_2" data-name="Layer 2"><g id="design"><path class="cls-1" d="M420,268.18l0-.09c0-.07.05-.13.07-.19.09-.24.18-.49.26-.74l.06-.18c.09-.25.17-.5.25-.76l.06-.18h0l.06-.2.14-.47,0-.08a.29.29,0,0,1,0-.09c.05-.15.09-.31.14-.47a1.94,1.94,0,0,1,.05-.2v0c0-.06,0-.12,0-.18.08-.25.14-.51.21-.77,0-.06,0-.12,0-.18.07-.26.13-.51.19-.77a1.29,1.29,0,0,1,0-.19.36.36,0,0,1,0-.1l4.85-.42,3.63-.31a28.54,28.54,0,0,0,.66-4.17,27.21,27.21,0,0,0,.05-4.23l-3.52-.93L422.71,251V251a1.21,1.21,0,0,1,0-.19c0-.27,0-.53-.05-.79a1.28,1.28,0,0,1,0-.19c0-.27-.05-.53-.07-.8,0-.05,0-.11,0-.16l0-.35c0-.12,0-.24,0-.36a.88.88,0,0,1,0-.16c0-.27-.07-.53-.1-.79l0-.19c0-.26-.08-.52-.12-.79l0-.19a.11.11,0,0,0,0,0l4.34-2.18,3.27-1.65a28.8,28.8,0,0,0-.94-4.12,30.17,30.17,0,0,0-1.52-3.95l-3.63.46-4.82.6,0-.09c0-.06-.05-.12-.08-.17-.11-.24-.22-.48-.34-.72a1.3,1.3,0,0,1-.08-.17l-.36-.71-.09-.17h0l-.09-.19-.23-.43a.25.25,0,0,1,0-.07.56.56,0,0,0-.05-.08c0-.07-.07-.13-.1-.19l-.13-.24-.11-.18h0l-.1-.17c-.13-.23-.26-.46-.4-.69a1.4,1.4,0,0,0-.1-.16c-.13-.23-.27-.45-.41-.67l-.11-.17-.05-.08,3.13-3.73,2.35-2.78a28.35,28.35,0,0,0-5.44-6.45l-3.14,1.84-4.2,2.46,0,0-.15-.13-.59-.52-.14-.13-.61-.51-.13-.11-.27-.22-.28-.22-.13-.1-.63-.49-.15-.12-.64-.47-.16-.11,0,0,1.52-4.61,1.15-3.46a28.49,28.49,0,0,0-3.58-2.26,28.15,28.15,0,0,0-3.87-1.71l-2.24,2.88-3,3.84-.09,0-.18-.06-.75-.27-.18-.06-.75-.25-.18-.06h0l-.2-.07-.47-.14-.08,0-.09,0-.46-.13-.21-.06h0l-.18-.05-.77-.2-.19-.05-.77-.18-.19,0-.1,0-.41-4.85-.31-3.62a28.79,28.79,0,0,0-8.41-.72l-.92,3.53-1.23,4.7h-.06l-.19,0-.79,0-.19,0-.8.07h-.16l-.35,0-.36,0h-.15l-.8.11-.19,0-.79.12-.18,0h0l-2.19-4.34-1.64-3.26a27.59,27.59,0,0,0-4.13.93,28.72,28.72,0,0,0-3.94,1.53l.45,3.62.61,4.82-.1,0-.17.08-.72.34-.16.08-.72.36-.16.09h0l-.19.1L359,215l-.07,0h0l-.08,0c-.14.08-.28.16-.43.23l-.18.11h0l-.16.09-.68.4-.17.1c-.22.13-.45.27-.67.42l-.16.1-.09.05-3.72-3.13-2.79-2.35a28.92,28.92,0,0,0-3.42,2.49,28.22,28.22,0,0,0-3,3l1.84,3.14,2.46,4.2,0,.05-.12.13-.53.6-.12.14-.52.62-.1.12-.23.28-.22.27a1.47,1.47,0,0,1-.1.13c-.17.21-.33.42-.49.64L345,227c-.17.22-.32.43-.48.65l-.11.15,0,0-4.61-1.52-3.47-1.15a28.49,28.49,0,0,0-2.26,3.58,28.15,28.15,0,0,0-1.71,3.87l2.88,2.24,3.84,3,0,.09a1.46,1.46,0,0,0-.07.19l-.27.74-.06.18c-.09.25-.17.5-.25.76l-.06.18h0a1.18,1.18,0,0,1-.07.2c0,.16-.09.32-.13.47l0,.08,0,.09-.13.47-.06.2v0c0,.06,0,.12-.05.18-.07.25-.14.51-.2.77l-.05.18-.18.77,0,.19,0,.1-4.84.41-3.63.32a28.68,28.68,0,0,0-.72,8.4l3.53.93,4.7,1.22s0,0,0,.06a1.21,1.21,0,0,0,0,.19c0,.27,0,.53.05.8,0,.06,0,.12,0,.18,0,.27,0,.53.07.8,0,.05,0,.11,0,.16s0,.24,0,.36,0,.23,0,.35a1,1,0,0,0,0,.16c0,.26.06.53.1.8,0,.06,0,.12,0,.18l.12.79,0,.18s0,0,0,.06l-4.34,2.18-3.26,1.65a30.18,30.18,0,0,0,.93,4.12,28.85,28.85,0,0,0,1.53,3.95l3.62-.46,4.82-.6,0,.09a1.3,1.3,0,0,1,.08.17l.34.72.09.17c.11.24.23.47.36.71l.08.17h0a1.74,1.74,0,0,0,.1.19l.23.43,0,.07,0,.08c0,.07.07.13.1.19l.14.24.1.18v0l.09.16.4.69a1.4,1.4,0,0,1,.1.16l.42.68.1.15.05.09L340,280l-2.35,2.79a29,29,0,0,0,5.44,6.45l3.14-1.84,4.21-2.46,0,0,.14.13.59.53.14.12.62.52.12.1.28.22.28.22.12.1.64.5.14.11.65.47.15.11,0,0-1.52,4.61-1.14,3.47a28.73,28.73,0,0,0,3.57,2.25,28.15,28.15,0,0,0,3.87,1.71l2.24-2.88,3-3.84.1,0,.18.07.74.26.19.06.75.25.18.06h0l.21.07.46.14.08,0,.09,0,.47.13.2.06h0l.17.05.78.21.18,0,.78.18.18,0,.1,0,.42,4.85.31,3.63a29.25,29.25,0,0,0,8.41.71l.92-3.52,1.23-4.71h.25l.79-.05.19,0,.79-.06.17,0,.35,0,.35,0,.16,0,.8-.1.18,0,.79-.12.19,0h.05L388.8,300l1.64,3.26a27.87,27.87,0,0,0,4.13-.93,29.23,29.23,0,0,0,3.94-1.53l-.45-3.62-.61-4.82.09,0,.18-.08.71-.34.18-.09.7-.35.17-.09h0l.19-.11.43-.22a.2.2,0,0,1,.08,0l.08-.05.42-.23.18-.11h0l.16-.09.69-.4.16-.1.68-.41.16-.11.09-.05,3.72,3.13,2.79,2.35a28.92,28.92,0,0,0,3.42-2.49,28.19,28.19,0,0,0,3-2.95L414,286.34l-2.46-4.2,0,0,.13-.15c.18-.19.35-.39.53-.59l.12-.15.52-.6a1.47,1.47,0,0,1,.1-.13l.23-.28.22-.27.1-.13.49-.63.11-.15.47-.64.12-.16,0,0,4.61,1.52,3.47,1.15a29.64,29.64,0,0,0,4-7.45l-2.89-2.24Zm-19.79-4.13a23.42,23.42,0,1,1-.17-22.36A23.44,23.44,0,0,1,400.23,264.05Z"/><path class="cls-1" d="M988.46,148.25l0-.09.06-.19.27-.74.06-.18.25-.75.06-.19h0l.06-.2c0-.16.1-.31.14-.47l0-.08,0-.09.13-.46.06-.21v0l.05-.17c.07-.26.14-.52.2-.78,0-.06,0-.12.05-.18l.18-.77c0-.06,0-.12,0-.19l0-.1L995,142l3.63-.32a28.55,28.55,0,0,0,.67-4.17,29.93,29.93,0,0,0,0-4.23l-3.53-.92-4.7-1.23a.13.13,0,0,0,0-.06,1.21,1.21,0,0,0,0-.19c0-.27,0-.53,0-.79a1.15,1.15,0,0,0,0-.19c0-.27,0-.53-.07-.8,0,0,0-.11,0-.16s0-.24,0-.35,0-.24,0-.36a1,1,0,0,0,0-.16c0-.26-.06-.53-.1-.79,0-.06,0-.13,0-.19l-.12-.79,0-.18s0,0,0-.06l4.34-2.18,3.26-1.65a30.18,30.18,0,0,0-.93-4.12,28.85,28.85,0,0,0-1.53-4l-3.62.46-4.82.61a1,1,0,0,0,0-.1,1.3,1.3,0,0,1-.08-.17c-.12-.24-.23-.48-.34-.72l-.09-.17c-.12-.24-.23-.47-.36-.71l-.08-.17h0a1.62,1.62,0,0,0-.1-.18c-.07-.15-.15-.29-.23-.44a.25.25,0,0,0,0-.07.59.59,0,0,0,0-.08,1.14,1.14,0,0,1-.1-.19l-.14-.24-.1-.18h0l-.09-.17-.4-.68-.1-.17-.42-.67a.86.86,0,0,0-.1-.16l-.06-.09,3.14-3.72,2.34-2.79a29.25,29.25,0,0,0-5.43-6.45l-3.15,1.84-4.2,2.46,0,0-.14-.13-.59-.52-.15-.13-.61-.51-.13-.11-.27-.22-.28-.22-.12-.1-.64-.49-.15-.12-.64-.47-.15-.11,0,0,1.52-4.61,1.14-3.47a29,29,0,0,0-7.44-4l-2.25,2.88-3,3.84-.1,0-.18-.06-.74-.27-.18-.06-.76-.25-.18,0h0l-.2-.06-.47-.14-.09,0-.08,0-.47-.13-.2-.06h0l-.18,0-.77-.2-.18,0-.77-.18-.19,0-.1,0-.42-4.84-.31-3.63a28.68,28.68,0,0,0-8.4-.72l-.93,3.53L946,89.93h-.24l-.8,0h-.18l-.8.07h-.16l-.36,0-.35,0-.16,0-.8.1-.18,0-.79.12-.19,0h-.05l-2.18-4.34-1.65-3.26a30.18,30.18,0,0,0-4.12.93,28.85,28.85,0,0,0-4,1.53l.46,3.62.6,4.82-.09,0-.17.08-.72.34-.17.09c-.24.11-.48.23-.71.36l-.17.08h0l-.19.1-.43.23-.07,0h0l-.08,0-.42.24-.19.1h0l-.16.09-.69.4-.16.1-.67.42-.17.1-.08,0L921,93.56l-2.79-2.35a28.22,28.22,0,0,0-3.43,2.49,29.07,29.07,0,0,0-3,3l1.83,3.14L916,104l0,0-.13.13-.53.6-.12.14-.52.62-.1.12c-.07.1-.15.19-.22.28l-.23.28-.1.12-.49.64-.11.14c-.16.22-.32.43-.47.65l-.11.15,0,0-4.61-1.52-3.47-1.14a28.73,28.73,0,0,0-2.25,3.57,28.15,28.15,0,0,0-1.71,3.87l2.88,2.24,3.83,3,0,.1-.07.18c-.09.25-.18.49-.26.74l-.06.18c-.09.25-.17.5-.25.76l-.06.18h0a1.72,1.72,0,0,0-.07.21c-.05.15-.09.31-.14.46s0,.06,0,.08l0,.09-.14.47a1.46,1.46,0,0,1,0,.2s0,0,0,0,0,.12,0,.18l-.21.77,0,.18c-.07.26-.13.52-.19.78l0,.18s0,.07,0,.1l-4.85.42-3.63.31a29.17,29.17,0,0,0-.71,8.41l3.52.92,4.71,1.23v0c0,.07,0,.13,0,.19,0,.27,0,.53,0,.8a1.37,1.37,0,0,0,0,.19l.06.79c0,.05,0,.11,0,.16l0,.36c0,.12,0,.23,0,.35s0,.11,0,.16c0,.27.07.53.1.8l0,.18c0,.26.08.53.12.79l0,.19v0L901,142.35,897.75,144a29.59,29.59,0,0,0,2.46,8.07l3.63-.46,4.81-.6.05.09c0,.06,0,.12.08.17.11.24.22.48.34.72l.08.17.36.71.09.17h0a1.74,1.74,0,0,1,.1.19l.23.43,0,.08,0,.07.11.19.13.24.11.18v0c0,.05.05.11.08.16l.41.69.09.16.42.68a1.3,1.3,0,0,1,.1.15.7.7,0,0,0,.06.09l-3.13,3.72-2.35,2.79a28.13,28.13,0,0,0,2.48,3.43,29.16,29.16,0,0,0,3,3l3.14-1.83,4.2-2.46,0,0,.14.13.6.53.14.12.61.52.13.1.28.23.27.22.13.1.63.49.15.11.64.48.15.1.05,0-1.53,4.61-1.14,3.47a29.61,29.61,0,0,0,3.58,2.25,28.15,28.15,0,0,0,3.87,1.71l2.24-2.88,3-3.83.09,0,.19.07.74.26.18.06.75.25.19.06h0l.2.07.47.14.08,0,.09,0,.46.14.21,0h0l.17,0,.78.21.17,0,.78.19.18,0,.11,0,.41,4.85.32,3.63a28.54,28.54,0,0,0,4.17.66,27.21,27.21,0,0,0,4.23.05l.92-3.52,1.23-4.71h.25l.79,0,.2,0,.79-.06.16,0,.35,0,.36,0,.16,0,.79-.1.19,0c.26,0,.53-.07.79-.12l.18,0h.06l2.18,4.34,1.65,3.27a28.8,28.8,0,0,0,4.12-.94,30.17,30.17,0,0,0,4-1.52l-.46-3.63-.61-4.82.09,0,.19-.08.7-.34.18-.08.7-.36.18-.09h0l.19-.1.42-.23.08,0,.08,0,.43-.23.18-.11h0l.16-.09.69-.4.16-.1.67-.41.16-.1.09-.06,3.72,3.13,2.79,2.35a28.94,28.94,0,0,0,6.45-5.44l-1.84-3.14-2.46-4.2,0,0,.13-.15.52-.59.13-.15.51-.6.11-.13c.07-.09.15-.18.22-.28l.22-.27.1-.13.49-.63.12-.15.47-.64.11-.16,0,0,4.61,1.52,3.47,1.15a28.49,28.49,0,0,0,2.26-3.58,28.15,28.15,0,0,0,1.71-3.87l-2.88-2.24Zm-19.79-4.12a23.43,23.43,0,1,1-.17-22.37A23.44,23.44,0,0,1,968.67,144.13Z"/><path class="cls-2" d="M837.77,80.23l0-.11a2,2,0,0,1,.08-.22l.32-.89a1.42,1.42,0,0,1,.07-.22l.3-.91c0-.08,0-.15.07-.22v0a2.25,2.25,0,0,0,.08-.24c.06-.19.12-.37.17-.56l0-.1,0-.11c.06-.18.11-.37.16-.56a2.17,2.17,0,0,0,.07-.24s0,0,0,0l.06-.21.24-.93.06-.22c.07-.31.15-.62.22-.93a1.74,1.74,0,0,1,.05-.22s0-.08,0-.13l5.84-.5,4.38-.37a34.95,34.95,0,0,0,.86-10.13l-4.25-1.11L841,59.57V59.5a1.77,1.77,0,0,1,0-.23l-.06-1c0-.08,0-.16,0-.23,0-.32,0-.64-.08-1,0-.07,0-.13,0-.2s0-.28,0-.42,0-.29,0-.43a1.23,1.23,0,0,1,0-.19l-.12-1a1.66,1.66,0,0,1,0-.22l-.15-1,0-.23,0-.06,5.23-2.63,3.93-2a34.89,34.89,0,0,0-1.12-5,35.81,35.81,0,0,0-1.84-4.76l-4.37.55-5.8.73a.37.37,0,0,1,0-.11l-.1-.21c-.13-.29-.27-.57-.41-.86l-.1-.21c-.14-.28-.28-.57-.43-.85a2.12,2.12,0,0,0-.11-.21h0a2.26,2.26,0,0,0-.11-.22c-.09-.18-.18-.35-.28-.52l0-.1,0-.09a1.59,1.59,0,0,0-.13-.22l-.15-.29-.13-.23h0l-.11-.2c-.16-.28-.32-.55-.49-.82,0-.07-.07-.14-.11-.2l-.5-.81-.13-.2a.61.61,0,0,0-.07-.1l3.78-4.49,2.83-3.36a34.58,34.58,0,0,0-3-4.12,35,35,0,0,0-3.55-3.65l-3.79,2.22-5.06,3-.05,0-.17-.16-.72-.63-.17-.15-.74-.62-.15-.13-.33-.26-.33-.27-.16-.12c-.25-.2-.5-.4-.76-.59l-.18-.14-.77-.57-.19-.14-.05,0,1.84-5.55,1.37-4.18a34.76,34.76,0,0,0-9-4.78l-2.7,3.48-3.58,4.62-.12,0-.21-.08-.9-.33-.22-.07-.91-.3-.21-.07h0l-.25-.08-.56-.17-.1,0-.1,0-.57-.16-.24-.07h0l-.22-.06-.93-.24-.22-.05-.93-.22-.22-.06-.12,0-.5-5.84L799.31.93a34.48,34.48,0,0,0-5-.81,36.25,36.25,0,0,0-5.1-.06l-1.11,4.25L786.59,10h-.07l-.22,0q-.48,0-1,.06h-.23l-1,.08-.19,0-.43,0-.42,0-.19,0-1,.13-.22,0-1,.15-.22,0-.07,0L777.86,5.4l-2-3.93a34.47,34.47,0,0,0-9.72,3l.55,4.37.73,5.8-.12.05-.2.1-.87.41-.2.1-.86.43-.2.1,0,0-.22.11-.52.28-.09.05h0l-.1.05-.51.28-.22.13h0l-.19.11c-.28.16-.56.32-.83.49l-.2.11-.81.51-.2.12-.1.06-4.48-3.77-3.36-2.83a35.75,35.75,0,0,0-4.13,3,35,35,0,0,0-3.64,3.56l2.21,3.79,3,5.06,0,0-.15.17c-.22.24-.43.47-.64.72-.05.05-.09.11-.14.17l-.63.74-.12.15-.27.33-.27.33-.12.15c-.2.26-.4.51-.59.77l-.14.18-.57.77-.13.18,0,.06-5.56-1.84-4.18-1.38a35.59,35.59,0,0,0-4.78,9l3.48,2.7,4.62,3.59s0,.08,0,.12a1.43,1.43,0,0,0-.08.22c-.11.3-.22.59-.32.89,0,.07,0,.15-.08.22l-.3.91c0,.07,0,.14-.07.22h0c0,.08-.05.17-.08.25l-.17.56,0,.1,0,.1-.16.57c0,.08,0,.16-.07.24s0,0,0,0a1.74,1.74,0,0,1,0,.22c-.09.31-.17.62-.25.93l0,.22c-.08.31-.15.62-.22.93l0,.22,0,.12-5.84.5-4.37.38a33.17,33.17,0,0,0-.8,5,34.81,34.81,0,0,0-.07,5.1l4.25,1.11L737,64.4v.07c0,.07,0,.15,0,.23,0,.32,0,.63.06,1,0,.08,0,.15,0,.23,0,.32,0,.64.08,1a1.23,1.23,0,0,1,0,.19c0,.15,0,.29,0,.43s0,.28,0,.43l0,.19q0,.48.12,1l0,.22c0,.31.09.63.14.95a1.43,1.43,0,0,0,0,.22.17.17,0,0,0,0,.07l-5.23,2.63-3.93,2a33.91,33.91,0,0,0,1.13,5,34.32,34.32,0,0,0,1.83,4.75l4.37-.55,5.8-.73.06.12.09.21c.14.28.27.57.41.86,0,.07.07.13.1.2.14.29.29.58.43.86l.11.2v0a2.39,2.39,0,0,0,.12.22l.27.52a.41.41,0,0,1,0,.09l.05.1a2.53,2.53,0,0,0,.13.22,2.69,2.69,0,0,0,.16.29l.12.22v0l.11.19c.16.28.32.56.49.84a1.18,1.18,0,0,1,.11.19l.51.82.12.18.06.11-3.77,4.48-2.82,3.36a32.78,32.78,0,0,0,3,4.13,33.13,33.13,0,0,0,3.56,3.64l3.78-2.21,5.06-3,0,0,.17.15.72.64.17.14.74.63.15.12.33.28.33.26.16.12.76.6.18.13.77.57.18.13.06,0-1.84,5.56-1.37,4.18a35.59,35.59,0,0,0,9,4.78l2.7-3.48,3.58-4.62.12,0,.22.09.89.31.23.08.9.3.22.07h0l.25.08.56.17.1,0,.11,0,.56.16.25.07h0l.21,0,.93.25.22,0,.93.22.22,0,.13,0,.5,5.84.37,4.37a33.5,33.5,0,0,0,5,.8,34.68,34.68,0,0,0,5.09.07l1.11-4.25,1.48-5.67h.07l.23,0c.32,0,.64,0,.95-.06h.24l1-.08.2,0,.42,0,.43-.05.19,0q.48,0,1-.12l.22,0,1-.14.23,0h.06l2.64,5.23,2,3.93a34.93,34.93,0,0,0,5-1.13,34.45,34.45,0,0,0,4.76-1.83l-.55-4.37-.73-5.8.11-.05.21-.1.86-.41.21-.1.85-.43.21-.11h0l.23-.13.51-.27.1,0,.09,0,.51-.29.22-.12h0l.2-.11.83-.49.19-.11.82-.51.19-.12.11-.07,4.48,3.78,3.36,2.82a33.42,33.42,0,0,0,4.12-3,34.14,34.14,0,0,0,3.65-3.56l-2.22-3.78-3-5.06,0,0,.16-.17.63-.72.15-.17c.21-.25.42-.49.62-.74l.13-.15.27-.33.26-.33.12-.16.6-.76.13-.18c.2-.26.39-.51.57-.77l.14-.19,0,0,5.55,1.83,4.18,1.38a34.76,34.76,0,0,0,4.78-9l-3.47-2.7Zm-23.84-5a28.23,28.23,0,1,1-.21-26.94A28.24,28.24,0,0,1,813.93,75.26Z"/><path class="cls-3" d="M658.93,64.41v1.82h-7.29V64.78l3.72-3.51c.85-.81,1-1.31,1-1.78,0-.76-.53-1.2-1.55-1.2a2.36,2.36,0,0,0-2,1l-1.63-1a4.5,4.5,0,0,1,3.84-1.8c2.15,0,3.58,1.11,3.58,2.86,0,.94-.26,1.79-1.61,3l-2.22,2.09Z"/><path class="cls-3" d="M668.55,64.21H667v2H664.8v-2h-5.2V62.7l4.55-6.12h2.35l-4.22,5.81h2.59V60.58H667v1.81h1.57Z"/><path class="cls-3" d="M676.48,63.2c0,1.71-1.26,3.2-4,3.2a6.71,6.71,0,0,1-3.68-1l.89-1.71a4.57,4.57,0,0,0,2.74.87c1.12,0,1.81-.47,1.81-1.25S673.72,62,672,62H669.5l.5-5.43h5.88v1.79h-4l-.15,1.84h.78C675.35,60.21,676.48,61.49,676.48,63.2Z"/><path class="cls-3" d="M685.35,63.18c0,2-1.61,3.22-3.65,3.22-2.66,0-4.32-1.67-4.32-4.79,0-3.33,2-5.2,4.93-5.2a5.2,5.2,0,0,1,2.69.67l-.83,1.64a3.19,3.19,0,0,0-1.81-.49,2.56,2.56,0,0,0-2.71,2.8,3.25,3.25,0,0,1,2.38-.85A3.06,3.06,0,0,1,685.35,63.18Zm-2.16.12a1.45,1.45,0,0,0-1.64-1.45,1.51,1.51,0,0,0-1.67,1.45c0,.82.62,1.43,1.7,1.43A1.44,1.44,0,0,0,683.19,63.3Z"/><path class="cls-3" d="M693.29,63.28c0,1.63-1.25,3.12-4,3.12a6.66,6.66,0,0,1-3.68-1l.87-1.71a4.63,4.63,0,0,0,2.76.87c1.12,0,1.81-.45,1.81-1.24s-.54-1.18-1.81-1.18h-1V60.62l2-2.25h-4.1V56.58h6.75V58l-2.18,2.48A2.74,2.74,0,0,1,693.29,63.28Z"/><path class="cls-3" d="M701.39,63.28c0,1.63-1.26,3.12-4,3.12a6.69,6.69,0,0,1-3.69-1l.87-1.71a4.63,4.63,0,0,0,2.76.87c1.12,0,1.81-.45,1.81-1.24s-.54-1.18-1.81-1.18h-1V60.62l2-2.25h-4.11V56.58h6.75V58l-2.18,2.48A2.75,2.75,0,0,1,701.39,63.28Z"/><path class="cls-3" d="M709.48,63.28c0,1.63-1.26,3.12-4,3.12a6.63,6.63,0,0,1-3.68-1l.86-1.71a4.67,4.67,0,0,0,2.76.87c1.12,0,1.81-.45,1.81-1.24s-.54-1.18-1.81-1.18h-1V60.62l2-2.25h-4.11V56.58H709V58l-2.17,2.48A2.75,2.75,0,0,1,709.48,63.28Z"/><path class="cls-3" d="M717.57,63.28c0,1.63-1.26,3.12-4,3.12a6.63,6.63,0,0,1-3.68-1l.87-1.71a4.62,4.62,0,0,0,2.75.87c1.12,0,1.81-.45,1.81-1.24s-.54-1.18-1.81-1.18h-1V60.62l2-2.25h-4.11V56.58h6.76V58L715,60.51A2.75,2.75,0,0,1,717.57,63.28Z"/><path class="cls-3" d="M726.22,56.58v9.65H724V58.37h-1.93V56.58Z"/><path class="cls-3" d="M731.63,56.58v9.65h-2.24V58.37h-1.93V56.58Z"/><path class="cls-3" d="M737,56.58v9.65H734.8V58.37h-1.93V56.58Z"/><path class="cls-3" d="M746.33,56.58v9.65H744.1V58.37h-1.93V56.58Z"/><path class="cls-3" d="M759.13,64.41v1.82h-7.3V64.78l3.72-3.51c.86-.81,1-1.31,1-1.78,0-.76-.52-1.2-1.54-1.2a2.36,2.36,0,0,0-2,1l-1.63-1a4.5,4.5,0,0,1,3.83-1.8c2.15,0,3.59,1.11,3.59,2.86,0,.94-.26,1.79-1.61,3L755,64.41Z"/><path class="cls-3" d="M771.08,63.28c0,1.63-1.26,3.12-4,3.12a6.63,6.63,0,0,1-3.68-1l.86-1.71a4.67,4.67,0,0,0,2.76.87c1.12,0,1.81-.45,1.81-1.24s-.54-1.18-1.81-1.18h-1V60.62l2-2.25h-4.11V56.58h6.76V58l-2.18,2.48A2.75,2.75,0,0,1,771.08,63.28Z"/><path class="cls-3" d="M784.85,64.21h-1.58v2H781.1v-2h-5.2V62.7l4.55-6.12h2.34l-4.22,5.81h2.6V60.58h2.1v1.81h1.58Z"/><path class="cls-3" d="M796.7,63.2c0,1.71-1.25,3.2-4,3.2a6.66,6.66,0,0,1-3.68-1l.88-1.71a4.59,4.59,0,0,0,2.74.87c1.12,0,1.81-.47,1.81-1.25s-.5-1.26-2.25-1.26h-2.47l.5-5.43h5.89v1.79h-4l-.15,1.84h.79C795.57,60.21,796.7,61.49,796.7,63.2Z"/><path class="cls-3" d="M805.58,63.18c0,2-1.62,3.22-3.66,3.22-2.66,0-4.31-1.67-4.31-4.79,0-3.33,2-5.2,4.92-5.2a5.2,5.2,0,0,1,2.69.67l-.83,1.64a3.17,3.17,0,0,0-1.8-.49,2.57,2.57,0,0,0-2.72,2.8,3.27,3.27,0,0,1,2.38-.85A3.06,3.06,0,0,1,805.58,63.18Zm-2.17.12a1.45,1.45,0,0,0-1.64-1.45,1.51,1.51,0,0,0-1.67,1.45c0,.82.62,1.43,1.7,1.43A1.44,1.44,0,0,0,803.41,63.3Z"/><path class="cls-3" d="M817.84,56.58V58l-3.58,8.2h-2.43l3.46-7.83H812.1V60h-2V56.58Z"/><path class="cls-3" d="M834.72,63.43c0,1.82-1.63,3-4.08,3s-4.06-1.15-4.06-3A2.46,2.46,0,0,1,828,61.16a2.24,2.24,0,0,1-1.11-2c0-1.69,1.51-2.76,3.71-2.76s3.73,1.07,3.73,2.76a2.24,2.24,0,0,1-1.13,2A2.44,2.44,0,0,1,834.72,63.43Zm-2.26-.07c0-.85-.71-1.37-1.82-1.37s-1.8.52-1.8,1.37.69,1.4,1.8,1.4S832.46,64.22,832.46,63.36Zm-3.31-4.09c0,.73.58,1.19,1.49,1.19s1.51-.46,1.51-1.19-.6-1.21-1.51-1.21S829.15,58.51,829.15,59.27Z"/><path class="cls-3" d="M855.14,61.2c0,3.34-2,5.2-4.92,5.2a5.2,5.2,0,0,1-2.67-.66l.82-1.65a3.14,3.14,0,0,0,1.81.49,2.58,2.58,0,0,0,2.72-2.82,3.3,3.3,0,0,1-2.4.87,3.06,3.06,0,0,1-3.33-3c0-2,1.62-3.22,3.66-3.22C853.5,56.41,855.14,58.08,855.14,61.2Zm-2.49-1.68A1.48,1.48,0,0,0,851,58.08,1.46,1.46,0,1,0,851,61,1.5,1.5,0,0,0,852.65,59.52Z"/><path class="cls-3" d="M867.92,61.41c0-3.19,1.76-5,4.14-5s4.13,1.81,4.13,5-1.75,5-4.13,5S867.92,64.59,867.92,61.41Zm6,0c0-2.2-.77-3.11-1.88-3.11s-1.88.91-1.88,3.11.77,3.1,1.88,3.1S873.94,63.6,873.94,61.41Z"/><path class="cls-3" d="M538.09,180.94h-12.8a3.72,3.72,0,0,1-3.72-3.72h0a3.72,3.72,0,0,1,3.72-3.72h12.8a3.73,3.73,0,0,1,3.72,3.72h0A3.73,3.73,0,0,1,538.09,180.94Z"/><path class="cls-3" d="M572.36,180.94h-10a3.73,3.73,0,0,1-3.72-3.72h0a3.73,3.73,0,0,1,3.72-3.72h10a3.72,3.72,0,0,1,3.72,3.72h0A3.72,3.72,0,0,1,572.36,180.94Z"/><path class="cls-3" d="M615.18,180.94H596a3.73,3.73,0,0,1-3.72-3.72h0A3.73,3.73,0,0,1,596,173.5h19.15a3.72,3.72,0,0,1,3.71,3.72h0A3.72,3.72,0,0,1,615.18,180.94Z"/><rect class="cls-3" x="550.79" y="159.08" width="41.52" height="7.44" rx="3.72"/><rect class="cls-3" x="613.36" y="159.08" width="24.39" height="7.44" rx="3.72"/><rect class="cls-3" x="587.17" y="144.66" width="23.79" height="7.44" rx="3.72"/><rect class="cls-3" x="525.5" y="130.24" width="36.24" height="7.44" rx="3.72"/><rect class="cls-3" x="571.38" y="130.24" width="51.72" height="7.44" rx="3.72"/><path class="cls-3" d="M572.36,123.26H559.48a3.73,3.73,0,0,1-3.72-3.72h0a3.73,3.73,0,0,1,3.72-3.72h12.88a3.72,3.72,0,0,1,3.72,3.72h0A3.72,3.72,0,0,1,572.36,123.26Z"/><path class="cls-3" d="M635.78,123.26H613.67a3.73,3.73,0,0,1-3.72-3.72h0a3.73,3.73,0,0,1,3.72-3.72h22.11a3.72,3.72,0,0,1,3.71,3.72h0A3.72,3.72,0,0,1,635.78,123.26Z"/><path class="cls-3" d="M605,94.42H590.88a3.71,3.71,0,0,1-3.71-3.72h0A3.72,3.72,0,0,1,590.88,87H605a3.72,3.72,0,0,1,3.71,3.72h0A3.71,3.71,0,0,1,605,94.42Z"/><path class="cls-3" d="M572.36,80H547.07a3.71,3.71,0,0,1-3.71-3.72h0a3.72,3.72,0,0,1,3.71-3.72h25.29a3.72,3.72,0,0,1,3.72,3.72h0A3.71,3.71,0,0,1,572.36,80Z"/><path class="cls-3" d="M617.83,80H602.07a3.72,3.72,0,0,1-3.72-3.72h0a3.73,3.73,0,0,1,3.72-3.72h15.76a3.72,3.72,0,0,1,3.72,3.72h0A3.71,3.71,0,0,1,617.83,80Z"/><path class="cls-3" d="M531.1,65.58h-1.88a3.72,3.72,0,0,1-3.72-3.72h0a3.73,3.73,0,0,1,3.72-3.72h1.88a3.72,3.72,0,0,1,3.72,3.72h0A3.71,3.71,0,0,1,531.1,65.58Z"/><path class="cls-3" d="M634,65.58H557.39a3.72,3.72,0,0,1-3.72-3.72h0a3.73,3.73,0,0,1,3.72-3.72H634a3.72,3.72,0,0,1,3.72,3.72h0A3.71,3.71,0,0,1,634,65.58Z"/><path class="cls-3" d="M473.51,112.65v10.9h-2.19v-.91a3,3,0,0,1-2.47,1,4.07,4.07,0,0,1,0-8.14,3,3,0,0,1,2.37,1v-3.84Zm-2.25,6.95a2,2,0,1,0-2,2.19A2,2,0,0,0,471.26,119.6Z"/><path class="cls-3" d="M483.32,120.25h-6a2.11,2.11,0,0,0,2.27,1.58,2.71,2.71,0,0,0,2-.76l1.22,1.32a4.14,4.14,0,0,1-3.26,1.28c-2.74,0-4.51-1.72-4.51-4.07a4,4,0,0,1,4.21-4.07,3.92,3.92,0,0,1,4.12,4.1C483.37,119.81,483.34,120.06,483.32,120.25Zm-6-1.34h3.9a2,2,0,0,0-3.9,0Z"/><path class="cls-3" d="M487.4,115.83h2v1.76h-2v6h-2.29v-6H484v-1.76h1.22v-.36a2.76,2.76,0,0,1,3.06-2.93A3.25,3.25,0,0,1,490,113l-.6,1.66a1.64,1.64,0,0,0-.92-.28c-.68,0-1.05.37-1.05,1.15Z"/><path class="cls-3" d="M494.45,113.27a1.32,1.32,0,0,1,1.43-1.28,1.28,1.28,0,0,1,1.42,1.24,1.43,1.43,0,0,1-2.85,0Zm.28,2.38H497v7.9h-2.29Z"/><path class="cls-3" d="M507.23,119v4.52h-2.29v-4.17c0-1.28-.59-1.87-1.6-1.87s-1.9.68-1.9,2.13v3.91h-2.29v-7.9h2.19v.92a3.48,3.48,0,0,1,2.62-1C505.82,115.53,507.23,116.62,507.23,119Z"/><path class="cls-3" d="M509,113.27a1.32,1.32,0,0,1,1.43-1.28,1.28,1.28,0,0,1,1.42,1.24,1.43,1.43,0,0,1-2.85,0Zm.28,2.38h2.29v7.9H509.3Z"/><path class="cls-3" d="M518.82,123.17a3.25,3.25,0,0,1-1.86.5c-1.87,0-3-1-3-2.84v-3.24h-1.22v-1.76H514V113.9h2.29v1.93h2v1.76h-2v3.21a.93.93,0,0,0,1,1,1.54,1.54,0,0,0,.92-.3Z"/><path class="cls-3" d="M527.1,119v4.51H525v-1a2.6,2.6,0,0,1-2.41,1.1c-1.85,0-2.95-1-2.95-2.4s1-2.36,3.39-2.36h1.82c0-1-.58-1.56-1.82-1.56a3.74,3.74,0,0,0-2.27.74l-.83-1.6a6.08,6.08,0,0,1,3.41-1C525.71,115.53,527.1,116.65,527.1,119Zm-2.29,2v-.8h-1.57c-1.07,0-1.41.39-1.41.92s.49,1,1.29,1A1.69,1.69,0,0,0,524.81,121.05Z"/><path class="cls-3" d="M529.18,112.65h2.29v10.9h-2.29Z"/><path class="cls-3" d="M532.69,126.4a14.1,14.1,0,0,0,0-13.75h2.18a13.64,13.64,0,0,1,0,13.75Z"/><path class="cls-3" d="M537.94,126.4a14,14,0,0,0,0-13.75h2.19a13.7,13.7,0,0,1,0,13.75Z"/><path class="cls-3" d="M547.71,117a1.43,1.43,0,0,1,2.85,0,1.43,1.43,0,1,1-2.85,0Zm0,5.27a1.43,1.43,0,0,1,2.85,0,1.43,1.43,0,1,1-2.85,0Z"/><rect class="cls-3" x="845.7" y="326.31" width="69.34" height="7.44" rx="3.72"/><rect class="cls-3" x="926.77" y="326.31" width="20.24" height="7.44" rx="3.72"/><rect class="cls-3" x="954.16" y="326.31" width="20.24" height="7.44" rx="3.72"/><rect class="cls-3" x="991.23" y="326.31" width="17.44" height="7.44" rx="3.72"/><rect class="cls-3" x="1024.9" y="326.31" width="26.58" height="7.44" rx="3.72"/><path class="cls-3" d="M881.63,319.33H858.72a3.71,3.71,0,0,1-3.72-3.72h0a3.72,3.72,0,0,1,3.72-3.72h22.91a3.73,3.73,0,0,1,3.72,3.72h0A3.72,3.72,0,0,1,881.63,319.33Z"/><path class="cls-3" d="M947.42,319.33H917a3.71,3.71,0,0,1-3.72-3.72h0a3.72,3.72,0,0,1,3.72-3.72h30.44a3.73,3.73,0,0,1,3.72,3.72h0A3.72,3.72,0,0,1,947.42,319.33Z"/><path class="cls-3" d="M1021.19,319.33H987.1a3.72,3.72,0,0,1-3.72-3.72h0a3.73,3.73,0,0,1,3.72-3.72h34.09a3.72,3.72,0,0,1,3.71,3.72h0A3.71,3.71,0,0,1,1021.19,319.33Z"/><path class="cls-3" d="M1066.62,319.33h-16.95a3.71,3.71,0,0,1-3.72-3.72h0a3.72,3.72,0,0,1,3.72-3.72h16.95a3.72,3.72,0,0,1,3.71,3.72h0A3.71,3.71,0,0,1,1066.62,319.33Z"/><path class="cls-3" d="M1039.83,304.91h-16.35a3.71,3.71,0,0,1-3.72-3.72h0a3.72,3.72,0,0,1,3.72-3.72h16.35a3.72,3.72,0,0,1,3.72,3.72h0A3.71,3.71,0,0,1,1039.83,304.91Z"/><path class="cls-3" d="M871.88,290.49H858.72a3.71,3.71,0,0,1-3.72-3.72h0a3.72,3.72,0,0,1,3.72-3.72h13.16a3.72,3.72,0,0,1,3.72,3.72h0A3.71,3.71,0,0,1,871.88,290.49Z"/><path class="cls-3" d="M921.06,290.49H888.11a3.71,3.71,0,0,1-3.72-3.72h0a3.72,3.72,0,0,1,3.72-3.72h32.95a3.73,3.73,0,0,1,3.72,3.72h0A3.72,3.72,0,0,1,921.06,290.49Z"/><path class="cls-3" d="M990.62,290.49H961.81a3.72,3.72,0,0,1-3.72-3.72h0a3.73,3.73,0,0,1,3.72-3.72h28.81a3.72,3.72,0,0,1,3.71,3.72h0A3.71,3.71,0,0,1,990.62,290.49Z"/><path class="cls-3" d="M1052,290.49h-44.29a3.72,3.72,0,0,1-3.72-3.72h0a3.73,3.73,0,0,1,3.72-3.72H1052a3.72,3.72,0,0,1,3.71,3.72h0A3.71,3.71,0,0,1,1052,290.49Z"/><path class="cls-3" d="M885.62,276.07H870.9a3.72,3.72,0,0,1-3.72-3.72h0a3.72,3.72,0,0,1,3.72-3.71h14.72a3.71,3.71,0,0,1,3.71,3.71h0A3.71,3.71,0,0,1,885.62,276.07Z"/><path class="cls-3" d="M970.68,276.07H900.15a3.72,3.72,0,0,1-3.72-3.72h0a3.72,3.72,0,0,1,3.72-3.71h70.53a3.72,3.72,0,0,1,3.72,3.71h0A3.72,3.72,0,0,1,970.68,276.07Z"/><path class="cls-3" d="M1005,276.07H992.07a3.72,3.72,0,0,1-3.72-3.72h0a3.72,3.72,0,0,1,3.72-3.71H1005a3.71,3.71,0,0,1,3.72,3.71h0A3.71,3.71,0,0,1,1005,276.07Z"/><path class="cls-3" d="M1068.37,276.07h-22.11a3.72,3.72,0,0,1-3.72-3.72h0a3.72,3.72,0,0,1,3.72-3.71h22.11a3.72,3.72,0,0,1,3.72,3.71h0A3.72,3.72,0,0,1,1068.37,276.07Z"/><rect class="cls-3" x="834.77" y="254.22" width="16.46" height="7.44" rx="3.72"/><rect class="cls-3" x="860.06" y="254.22" width="64.72" height="7.44" rx="3.72"/><rect class="cls-3" x="958.09" y="254.22" width="10.54" height="7.44" rx="3.72"/><rect class="cls-3" x="981.63" y="254.22" width="66.31" height="7.44" rx="3.72"/><rect class="cls-3" x="834.77" y="239.8" width="30.2" height="7.44" rx="3.72"/><rect class="cls-3" x="1019.76" y="239.8" width="21.54" height="7.44" rx="3.72"/><rect class="cls-3" x="852.12" y="225.38" width="11.08" height="7.44" rx="3.72"/><rect class="cls-3" x="868.95" y="225.38" width="11.08" height="7.44" rx="3.72"/><rect class="cls-3" x="885.79" y="225.38" width="11.08" height="7.44" rx="3.72"/><rect class="cls-3" x="914.59" y="225.38" width="48.17" height="7.44" rx="3.72"/><rect class="cls-3" x="975.95" y="225.38" width="32.72" height="7.44" rx="3.72"/><rect class="cls-3" x="1030.94" y="225.38" width="23.2" height="7.44" rx="3.72"/><path class="cls-3" d="M886.76,218.39H877.1a3.71,3.71,0,0,1-3.71-3.71h0A3.71,3.71,0,0,1,877.1,211h9.66a3.72,3.72,0,0,1,3.72,3.72h0A3.72,3.72,0,0,1,886.76,218.39Z"/><path class="cls-3" d="M943.29,218.39H909a3.72,3.72,0,0,1-3.72-3.71h0A3.72,3.72,0,0,1,909,211h34.29a3.72,3.72,0,0,1,3.72,3.72h0A3.72,3.72,0,0,1,943.29,218.39Z"/><path class="cls-3" d="M963.7,218.39h-1.89a3.72,3.72,0,0,1-3.72-3.71h0a3.72,3.72,0,0,1,3.72-3.72h1.89a3.71,3.71,0,0,1,3.71,3.72h0A3.71,3.71,0,0,1,963.7,218.39Z"/><path class="cls-3" d="M1066.62,218.39H990a3.71,3.71,0,0,1-3.71-3.71h0A3.71,3.71,0,0,1,990,211h76.64a3.71,3.71,0,0,1,3.71,3.72h0A3.71,3.71,0,0,1,1066.62,218.39Z"/><path class="cls-3" d="M870.77,204H838.49a3.71,3.71,0,0,1-3.72-3.71h0a3.71,3.71,0,0,1,3.72-3.72h32.28a3.71,3.71,0,0,1,3.72,3.72h0A3.71,3.71,0,0,1,870.77,204Z"/><path class="cls-3" d="M954.38,204H884.19a3.72,3.72,0,0,1-3.72-3.71h0a3.72,3.72,0,0,1,3.72-3.72h70.19a3.71,3.71,0,0,1,3.71,3.72h0A3.71,3.71,0,0,1,954.38,204Z"/><path class="cls-3" d="M1005,204H972.36a3.71,3.71,0,0,1-3.72-3.71h0a3.71,3.71,0,0,1,3.72-3.72H1005a3.71,3.71,0,0,1,3.72,3.72h0A3.71,3.71,0,0,1,1005,204Z"/><path class="cls-3" d="M1036,204h-12.55a3.71,3.71,0,0,1-3.72-3.71h0a3.71,3.71,0,0,1,3.72-3.72H1036a3.72,3.72,0,0,1,3.72,3.72h0A3.72,3.72,0,0,1,1036,204Z"/><path class="cls-3" d="M766.24,349.69v1.82H759v-1.45l3.72-3.51c.86-.81,1-1.31,1-1.78,0-.76-.53-1.2-1.55-1.2a2.34,2.34,0,0,0-2,1l-1.63-1.05a4.47,4.47,0,0,1,3.83-1.8c2.15,0,3.59,1.11,3.59,2.86,0,.94-.27,1.79-1.62,3.05l-2.22,2.09Z"/><path class="cls-3" d="M775.87,349.49h-1.58v2h-2.18v-2h-5.19V348l4.55-6.12h2.34l-4.22,5.81h2.59v-1.81h2.11v1.81h1.58Z"/><path class="cls-3" d="M783.79,348.48c0,1.71-1.25,3.2-4,3.2a6.66,6.66,0,0,1-3.68-1l.88-1.71a4.59,4.59,0,0,0,2.74.87c1.12,0,1.81-.47,1.81-1.25s-.5-1.26-2.25-1.26h-2.47l.5-5.43h5.89v1.79h-4l-.15,1.84h.79C782.66,345.49,783.79,346.77,783.79,348.48Z"/><path class="cls-3" d="M792.67,348.46c0,2-1.62,3.22-3.66,3.22-2.66,0-4.31-1.67-4.31-4.79,0-3.33,2-5.2,4.92-5.2a5.2,5.2,0,0,1,2.69.67l-.83,1.64a3.17,3.17,0,0,0-1.8-.49,2.57,2.57,0,0,0-2.72,2.8,3.27,3.27,0,0,1,2.38-.85A3.06,3.06,0,0,1,792.67,348.46Zm-2.17.12a1.45,1.45,0,0,0-1.64-1.45,1.51,1.51,0,0,0-1.67,1.45c0,.82.62,1.43,1.7,1.43A1.44,1.44,0,0,0,790.5,348.58Z"/><path class="cls-3" d="M800.61,348.56c0,1.63-1.26,3.12-4,3.12a6.63,6.63,0,0,1-3.68-1l.87-1.71a4.62,4.62,0,0,0,2.75.87c1.12,0,1.81-.45,1.81-1.24s-.54-1.18-1.81-1.18h-1V345.9l2-2.25h-4.11v-1.79h6.76v1.45L798,345.79A2.75,2.75,0,0,1,800.61,348.56Z"/><path class="cls-3" d="M808.7,348.56c0,1.63-1.26,3.12-4,3.12a6.66,6.66,0,0,1-3.68-1l.87-1.71a4.62,4.62,0,0,0,2.75.87c1.12,0,1.81-.45,1.81-1.24s-.54-1.18-1.81-1.18h-1V345.9l2-2.25H801.5v-1.79h6.76v1.45l-2.18,2.48A2.74,2.74,0,0,1,808.7,348.56Z"/><path class="cls-3" d="M816.79,348.56c0,1.63-1.26,3.12-4,3.12a6.66,6.66,0,0,1-3.68-1l.87-1.71a4.63,4.63,0,0,0,2.76.87c1.11,0,1.8-.45,1.8-1.24s-.54-1.18-1.8-1.18h-1V345.9l2-2.25h-4.11v-1.79h6.76v1.45l-2.18,2.48A2.74,2.74,0,0,1,816.79,348.56Z"/><path class="cls-3" d="M824.88,348.56c0,1.63-1.25,3.12-4,3.12a6.66,6.66,0,0,1-3.68-1l.87-1.71a4.63,4.63,0,0,0,2.76.87c1.11,0,1.8-.45,1.8-1.24s-.53-1.18-1.8-1.18h-1V345.9l2-2.25h-4.11v-1.79h6.76v1.45l-2.18,2.48A2.74,2.74,0,0,1,824.88,348.56Z"/><path class="cls-3" d="M833.54,341.86v9.65H831.3v-7.86h-1.93v-1.79Z"/><path class="cls-3" d="M838.94,341.86v9.65h-2.23v-7.86h-1.93v-1.79Z"/><path class="cls-3" d="M844.34,341.86v9.65h-2.23v-7.86h-1.93v-1.79Z"/><path class="cls-3" d="M853.65,341.86v9.65h-2.24v-7.86h-1.93v-1.79Z"/><path class="cls-3" d="M866.44,349.69v1.82h-7.29v-1.45l3.72-3.51c.85-.81,1-1.31,1-1.78,0-.76-.52-1.2-1.54-1.2a2.36,2.36,0,0,0-2,1l-1.63-1.05a4.5,4.5,0,0,1,3.84-1.8c2.15,0,3.58,1.11,3.58,2.86,0,.94-.26,1.79-1.61,3.05l-2.22,2.09Z"/><path class="cls-3" d="M878.39,348.56c0,1.63-1.26,3.12-4,3.12a6.66,6.66,0,0,1-3.68-1l.87-1.71a4.63,4.63,0,0,0,2.76.87c1.11,0,1.8-.45,1.8-1.24s-.54-1.18-1.8-1.18h-1V345.9l2-2.25h-4.11v-1.79H878v1.45l-2.18,2.48A2.74,2.74,0,0,1,878.39,348.56Z"/><path class="cls-3" d="M892.16,349.49h-1.57v2h-2.18v-2h-5.2V348l4.55-6.12h2.35l-4.22,5.81h2.59v-1.81h2.11v1.81h1.57Z"/><path class="cls-3" d="M904,348.48c0,1.71-1.25,3.2-4,3.2a6.68,6.68,0,0,1-3.68-1l.88-1.71a4.6,4.6,0,0,0,2.75.87c1.11,0,1.8-.47,1.8-1.25s-.49-1.26-2.25-1.26H897l.49-5.43h5.89v1.79h-4l-.15,1.84H900C902.88,345.49,904,346.77,904,348.48Z"/><path class="cls-3" d="M912.89,348.46c0,2-1.61,3.22-3.65,3.22-2.66,0-4.32-1.67-4.32-4.79,0-3.33,2-5.2,4.92-5.2a5.18,5.18,0,0,1,2.69.67l-.82,1.64a3.19,3.19,0,0,0-1.81-.49,2.57,2.57,0,0,0-2.72,2.8,3.29,3.29,0,0,1,2.39-.85A3.06,3.06,0,0,1,912.89,348.46Zm-2.16.12a1.45,1.45,0,0,0-1.64-1.45,1.51,1.51,0,0,0-1.67,1.45c0,.82.62,1.43,1.69,1.43A1.45,1.45,0,0,0,910.73,348.58Z"/><path class="cls-3" d="M925.16,341.86v1.45l-3.59,8.2h-2.42l3.46-7.83h-3.2v1.57h-2v-3.39Z"/><path class="cls-3" d="M942,348.71c0,1.82-1.63,3-4.08,3s-4.06-1.15-4.06-3a2.45,2.45,0,0,1,1.47-2.27,2.23,2.23,0,0,1-1.12-2c0-1.69,1.52-2.76,3.71-2.76s3.73,1.07,3.73,2.76a2.24,2.24,0,0,1-1.13,2A2.44,2.44,0,0,1,942,348.71Zm-2.26-.07c0-.85-.7-1.37-1.82-1.37s-1.79.52-1.79,1.37.69,1.4,1.79,1.4S939.77,349.5,939.77,348.64Zm-3.31-4.09c0,.73.58,1.19,1.49,1.19s1.51-.46,1.51-1.19-.6-1.21-1.51-1.21S936.46,343.79,936.46,344.55Z"/><path class="cls-3" d="M962.46,346.48c0,3.34-2,5.2-4.93,5.2a5.23,5.23,0,0,1-2.67-.66l.83-1.65a3.09,3.09,0,0,0,1.8.49,2.58,2.58,0,0,0,2.72-2.82,3.28,3.28,0,0,1-2.4.87,3.06,3.06,0,0,1-3.32-3c0-2,1.61-3.22,3.65-3.22C960.82,341.69,962.46,343.36,962.46,346.48ZM960,344.8a1.48,1.48,0,0,0-1.68-1.44,1.46,1.46,0,1,0,0,2.89A1.49,1.49,0,0,0,960,344.8Z"/><path class="cls-3" d="M975.23,346.69c0-3.19,1.77-5,4.14-5s4.13,1.81,4.13,5-1.75,5-4.13,5S975.23,349.87,975.23,346.69Zm6,0c0-2.2-.77-3.11-1.89-3.11s-1.88.91-1.88,3.11.78,3.1,1.88,3.1S981.26,348.88,981.26,346.69Z"/><path class="cls-3" d="M843.65,297.06h2v1.76h-2v6h-2.29v-6H840.2v-1.76h1.22v-.35a2.76,2.76,0,0,1,3.05-2.94,3.18,3.18,0,0,1,1.75.43l-.6,1.66a1.58,1.58,0,0,0-.93-.28c-.67,0-1,.36-1,1.14Z"/><path class="cls-3" d="M854.79,296.88v7.91h-2.18v-.94a3.18,3.18,0,0,1-2.45,1c-2,0-3.38-1.11-3.38-3.55v-4.47h2.29V301c0,1.32.59,1.91,1.6,1.91s1.82-.67,1.82-2.13v-3.91Z"/><path class="cls-3" d="M865,300.26v4.53H862.7v-4.17c0-1.28-.59-1.87-1.6-1.87s-1.89.68-1.89,2.13v3.91h-2.29v-7.91h2.18v.93a3.46,3.46,0,0,1,2.62-1C863.58,296.77,865,297.85,865,300.26Z"/><path class="cls-3" d="M866.57,300.84a4.08,4.08,0,0,1,4.4-4.07,3.63,3.63,0,0,1,3.54,2l-1.78,1a2,2,0,0,0-1.77-1.08,2.19,2.19,0,0,0,0,4.37,1.93,1.93,0,0,0,1.77-1.08l1.78,1a3.66,3.66,0,0,1-3.54,2A4.08,4.08,0,0,1,866.57,300.84Z"/><path class="cls-3" d="M881.05,304.4a3.26,3.26,0,0,1-1.87.5c-1.86,0-2.95-.95-2.95-2.83v-3.25H875v-1.76h1.22v-1.92h2.29v1.92h2v1.76h-2V302a.92.92,0,0,0,1,1,1.56,1.56,0,0,0,.93-.29Z"/><path class="cls-3" d="M882.06,294.5a1.31,1.31,0,0,1,1.42-1.27,1.29,1.29,0,0,1,1.43,1.23,1.43,1.43,0,0,1-2.85,0Zm.28,2.38h2.29v7.91h-2.29Z"/><path class="cls-3" d="M886.17,300.84a4.35,4.35,0,1,1,4.35,4.06A4.07,4.07,0,0,1,886.17,300.84Zm6.36,0a2,2,0,1,0-2,2.18A2,2,0,0,0,892.53,300.84Z"/><path class="cls-3" d="M904.46,300.26v4.53h-2.29v-4.17c0-1.28-.59-1.87-1.6-1.87s-1.9.68-1.9,2.13v3.91h-2.29v-7.91h2.19v.93a3.44,3.44,0,0,1,2.61-1C903.05,296.77,904.46,297.85,904.46,300.26Z"/><path class="cls-3" d="M919.29,300.84a3.83,3.83,0,0,1-3.93,4.06A3,3,0,0,1,913,304v3.69h-2.29V296.88h2.18v.92a3.06,3.06,0,0,1,2.49-1A3.83,3.83,0,0,1,919.29,300.84Zm-2.32,0a2,2,0,1,0-2,2.18A2,2,0,0,0,917,300.84Z"/><path class="cls-3" d="M920.84,300.76a12.46,12.46,0,0,1,1.83-6.87h2.19a14.17,14.17,0,0,0,0,13.75h-2.19A12.57,12.57,0,0,1,920.84,300.76Z"/><path class="cls-3" d="M933.06,300.28v4.51h-2.15v-1a2.59,2.59,0,0,1-2.41,1.1c-1.85,0-3-1-3-2.39s1-2.36,3.39-2.36h1.82c0-1-.58-1.56-1.82-1.56a3.82,3.82,0,0,0-2.27.73l-.83-1.6a6.07,6.07,0,0,1,3.41-1C931.66,296.77,933.06,297.88,933.06,300.28Zm-2.3,2v-.81h-1.57c-1.07,0-1.41.4-1.41.93s.49.95,1.29.95A1.68,1.68,0,0,0,930.76,302.29Z"/><path class="cls-3" d="M934.21,307.64a14,14,0,0,0,0-13.75h2.19a13.7,13.7,0,0,1,0,13.75Z"/><path class="cls-3" d="M946.69,300.76c.67.21,1,.63,1,1.65v2.35a1,1,0,0,0,1.07,1.08H949v1.8h-.86c-1.83,0-2.77-.94-2.77-2.63v-2.66a.6.6,0,0,0-.65-.69h-.48v-1.79h.48a.6.6,0,0,0,.65-.69v-2.66c0-1.69.94-2.63,2.77-2.63H949v1.79h-.27a1,1,0,0,0-1.07,1.09v2.35C947.67,300.13,947.36,300.56,946.69,300.76Z"/><path class="cls-3" d="M888.52,242.72v4.51h-2.14v-1a2.6,2.6,0,0,1-2.41,1.1c-1.85,0-3-1-3-2.39s1-2.37,3.39-2.37h1.82c0-1-.59-1.56-1.82-1.56a3.79,3.79,0,0,0-2.28.74l-.82-1.6a6.08,6.08,0,0,1,3.41-1C887.13,239.21,888.52,240.33,888.52,242.72Zm-2.29,2v-.81h-1.57c-1.07,0-1.41.39-1.41.92s.48,1,1.29,1A1.68,1.68,0,0,0,886.23,244.74Z"/><path class="cls-3" d="M894.6,239.37h7v1.8h-7Zm0,3.65h7v1.79h-7Z"/><path class="cls-3" d="M914.7,242.72v4.51h-2.15v-1a2.59,2.59,0,0,1-2.41,1.1c-1.85,0-2.95-1-2.95-2.39s1-2.37,3.39-2.37h1.82c0-1-.58-1.56-1.82-1.56a3.76,3.76,0,0,0-2.27.74l-.83-1.6a6.08,6.08,0,0,1,3.41-1C913.3,239.21,914.7,240.33,914.7,242.72Zm-2.3,2v-.81h-1.57c-1.07,0-1.41.39-1.41.92s.49,1,1.3,1A1.67,1.67,0,0,0,912.4,244.74Z"/><path class="cls-3" d="M916.21,245.91a1.43,1.43,0,0,1,2.85,0,1.43,1.43,0,1,1-2.85,0Z"/><path class="cls-3" d="M929.68,239.21v2.12a4.67,4.67,0,0,0-.52,0,1.94,1.94,0,0,0-2.1,2.2v3.73h-2.29v-7.9H927v1A3.21,3.21,0,0,1,929.68,239.21Z"/><path class="cls-3" d="M938.67,243.93h-6a2.11,2.11,0,0,0,2.26,1.58,2.68,2.68,0,0,0,2-.76l1.22,1.32a4.12,4.12,0,0,1-3.26,1.28c-2.73,0-4.51-1.72-4.51-4.07a4,4,0,0,1,4.22-4.07,3.91,3.91,0,0,1,4.11,4.1C938.71,243.49,938.68,243.74,938.67,243.93Zm-6-1.34h3.89a2,2,0,0,0-3.89,0Z"/><path class="cls-3" d="M948.85,243.28a3.84,3.84,0,0,1-3.94,4.07,3.08,3.08,0,0,1-2.38-.95v3.68h-2.29V239.33h2.19v.91a3.06,3.06,0,0,1,2.48-1A3.84,3.84,0,0,1,948.85,243.28Zm-2.33,0a2,2,0,1,0-2,2.19A2,2,0,0,0,946.52,243.28Z"/><path class="cls-3" d="M950.37,236.33h2.29v10.9h-2.29Z"/><path class="cls-3" d="M961.78,242.72v4.51h-2.14v-1a2.6,2.6,0,0,1-2.41,1.1c-1.85,0-3-1-3-2.39s1-2.37,3.39-2.37h1.82c0-1-.59-1.56-1.82-1.56a3.79,3.79,0,0,0-2.28.74l-.82-1.6a6.08,6.08,0,0,1,3.41-1C960.39,239.21,961.78,240.33,961.78,242.72Zm-2.29,2v-.81h-1.57c-1.07,0-1.41.39-1.41.92s.49,1,1.29,1A1.68,1.68,0,0,0,959.49,244.74Z"/><path class="cls-3" d="M963.36,243.28a4.08,4.08,0,0,1,4.4-4.07,3.63,3.63,0,0,1,3.54,2l-1.78,1a2,2,0,0,0-1.77-1.09,2.19,2.19,0,0,0,0,4.38,1.92,1.92,0,0,0,1.77-1.09l1.78,1a3.65,3.65,0,0,1-3.54,2A4.08,4.08,0,0,1,963.36,243.28Z"/><path class="cls-3" d="M980.22,243.93h-6a2.11,2.11,0,0,0,2.26,1.58,2.68,2.68,0,0,0,2-.76l1.22,1.32a4.12,4.12,0,0,1-3.26,1.28c-2.73,0-4.51-1.72-4.51-4.07a4,4,0,0,1,4.22-4.07,3.91,3.91,0,0,1,4.11,4.1C980.26,243.49,980.23,243.74,980.22,243.93Zm-6-1.34h3.89a2,2,0,0,0-3.89,0Z"/><path class="cls-3" d="M981.8,243.21a12.41,12.41,0,0,1,1.84-6.88h2.19a14.17,14.17,0,0,0,0,13.75h-2.19A12.45,12.45,0,0,1,981.8,243.21Z"/><path class="cls-3" d="M990.86,234.86h2l-4.85,13.84h-2Z"/><path class="cls-3" d="M993.33,243.21a12.41,12.41,0,0,1,1.84-6.88h2.19a14.17,14.17,0,0,0,0,13.75h-2.19A12.45,12.45,0,0,1,993.33,243.21Z"/><path class="cls-3" d="M1003.47,239.21v2.12a4.67,4.67,0,0,0-.52,0,1.94,1.94,0,0,0-2.1,2.2v3.73h-2.29v-7.9h2.19v1A3.21,3.21,0,0,1,1003.47,239.21Z"/><path class="cls-3" d="M1007.61,234.86h2l-4.85,13.84h-2Z"/><path class="cls-3" d="M1014.62,342.8a1.42,1.42,0,0,1-2.83,0,3.42,3.42,0,0,1,.4-1.47l.85-2.11h1.45l-.64,2.33A1.28,1.28,0,0,1,1014.62,342.8Z"/><path class="cls-3" d="M1019,340.51a3.61,3.61,0,0,1-.38,1.47l-.85,2.11h-1.46l.64-2.32a1.29,1.29,0,0,1-.78-1.26,1.42,1.42,0,0,1,2.83,0Z"/><path class="cls-3" d="M1043.59,342.8a1.42,1.42,0,0,1-2.84,0,3.42,3.42,0,0,1,.4-1.47l.85-2.11h1.46l-.65,2.33A1.29,1.29,0,0,1,1043.59,342.8Z"/><path class="cls-3" d="M1047.94,340.51a3.51,3.51,0,0,1-.39,1.47l-.85,2.11h-1.45l.63-2.32a1.29,1.29,0,0,1-.78-1.26,1.37,1.37,0,0,1,1.43-1.41A1.35,1.35,0,0,1,1047.94,340.51Z"/><path class="cls-3" d="M1048.58,353a14.08,14.08,0,0,0,0-13.74h2.19a13.68,13.68,0,0,1,0,13.74Z"/><path class="cls-3" d="M1062.21,337.75h2l-4.84,13.83h-2.05Z"/><path class="cls-3" d="M1063.89,343.52a1.42,1.42,0,0,1,2.84,0,1.42,1.42,0,1,1-2.84,0Zm2.84,5.27a3.36,3.36,0,0,1-.39,1.47l-.84,2.12h-1.45l.64-2.34a1.28,1.28,0,0,1-.79-1.25,1.37,1.37,0,0,1,1.43-1.41A1.35,1.35,0,0,1,1066.73,348.79Z"/><path class="cls-2" d="M896.9,73.17l0,0,0-.09.12-.34,0-.09a3.58,3.58,0,0,0,.11-.35l0-.08h0l0-.09a1.87,1.87,0,0,0,.07-.22v0s0,0,0,0l.06-.21,0-.1h0l0-.08.09-.36,0-.08.09-.36v-.09l0,0,2.25-.19,1.68-.14a12.64,12.64,0,0,0,.31-1.94,13,13,0,0,0,0-2l-1.64-.43-2.19-.57v-.11l0-.37v-.09l0-.37a.17.17,0,0,1,0-.07c0-.06,0-.11,0-.17a.88.88,0,0,0,0-.16v-.08c0-.12,0-.24,0-.36v-.09l-.06-.37v-.11l2-1,1.51-.77a13.11,13.11,0,0,0-.43-1.91,14,14,0,0,0-.71-1.84l-1.68.22-2.24.28,0,0,0-.08c0-.11-.1-.22-.16-.33l0-.08L896,57a.59.59,0,0,1,0-.08h0l0-.09-.11-.2,0,0a.05.05,0,0,0,0,0l0-.09-.06-.11-.05-.08h0l0-.08c-.06-.1-.12-.21-.19-.31l0-.08-.2-.31s0,0,0-.08l0,0,1.46-1.73,1.09-1.29a12.66,12.66,0,0,0-1.16-1.59A13.06,13.06,0,0,0,895,49.3l-1.46.86-2,1.14,0,0-.07-.06-.27-.24-.07-.06-.28-.24-.06,0-.13-.1-.13-.1-.05,0-.3-.23-.07,0-.3-.22a.18.18,0,0,0-.07-.05l0,0,.71-2.14.53-1.61A14.11,14.11,0,0,0,889.36,45a13,13,0,0,0-1.8-.79l-1,1.34-1.38,1.78,0,0-.08,0-.35-.12-.08,0-.35-.12-.08,0h0l-.09,0-.22-.06h-.08l-.22-.07-.09,0h0l-.08,0-.36-.09-.09,0-.35-.09-.09,0h-.05l-.19-2.25-.14-1.69a14,14,0,0,0-1.94-.3,13,13,0,0,0-2,0l-.43,1.64-.57,2.18h-.11l-.37,0h-.09l-.37,0h-.07l-.17,0h-.24l-.37,0h-.08l-.37.06h-.11l-1-2L873,42.8a13.16,13.16,0,0,0-1.91.44,12.73,12.73,0,0,0-1.84.71l.22,1.68.28,2.24,0,0-.08,0-.33.16-.08,0-.33.17-.08,0h0l-.09.05-.2.1,0,0h0l0,0-.2.11-.09,0h0l-.08,0-.32.18-.07.05-.32.19-.07.05,0,0-1.73-1.45-1.29-1.09a11.9,11.9,0,0,0-1.59,1.15,14.17,14.17,0,0,0-1.41,1.38l.85,1.46,1.15,1.95,0,0-.06.06L863,53l-.06.06-.24.29,0,.06-.1.12-.11.13,0,.06-.23.3,0,.06-.22.3-.05.07,0,0-2.14-.7L858,53.22a12.63,12.63,0,0,0-1,1.66,14.2,14.2,0,0,0-.8,1.79l1.34,1,1.78,1.39v0l0,.09-.13.34a.29.29,0,0,0,0,.09L859,60l0,.08h0l0,.09-.06.22v0l0,0-.06.21,0,.1h0a.31.31,0,0,1,0,.08l-.09.36,0,.08c0,.12-.05.24-.08.36l0,.09v0l-2.25.2-1.69.14a13.76,13.76,0,0,0-.31,1.94,14.42,14.42,0,0,0,0,2l1.64.42,2.18.58v0s0,.06,0,.09,0,.25,0,.37,0,.06,0,.09l0,.37a.17.17,0,0,0,0,.07c0,.06,0,.11,0,.17a.78.78,0,0,1,0,.16s0,0,0,.07,0,.25.05.37a.28.28,0,0,0,0,.09c0,.12,0,.24,0,.37l0,.08v0l-2,1-1.52.76a13,13,0,0,0,.44,1.92,13.84,13.84,0,0,0,.7,1.83l1.69-.21,2.23-.28a.08.08,0,0,1,0,0,.59.59,0,0,1,0,.08c.05.12.11.23.16.34l0,.08.16.33,0,.07h0l0,.09a1.28,1.28,0,0,1,.11.2l0,0,0,0,0,.09.06.11,0,.08h0a.25.25,0,0,1,0,.07c.07.11.13.22.19.33l0,.07c.06.1.12.21.19.31l0,.08,0,0-1.45,1.73L858.65,80a13.34,13.34,0,0,0,1.15,1.59A13.06,13.06,0,0,0,861.17,83l1.46-.86,2-1.14,0,0,.07.06.28.24.06.06.29.24s0,0,.05,0l.13.1.13.1.06,0,.29.23.07,0,.3.22.07,0,0,0-.71,2.14-.53,1.61a14.11,14.11,0,0,0,1.66,1.05,13,13,0,0,0,1.8.79l1-1.34,1.39-1.78,0,0,.09,0,.34.12.09,0,.34.12.09,0h0l.1,0,.22.07h.07l.22.07.1,0h0l.09,0,.36.09.08,0,.36.09.08,0h0L874,88l.14,1.68a12.26,12.26,0,0,0,1.94.31,12.89,12.89,0,0,0,2,0l.43-1.64.57-2.19h.12l.37,0h.09l.36,0h.08l.16,0h.24l.37,0h.09l.36-.06h.12l1,2,.76,1.52a14.39,14.39,0,0,0,1.92-.44,12.61,12.61,0,0,0,1.83-.71l-.21-1.68-.28-2.24,0,0a.2.2,0,0,0,.08,0l.33-.15.09,0,.32-.17.08,0h0l.09,0,.19-.1,0,0,0,0,.2-.11.08,0h0l.07,0a3.37,3.37,0,0,0,.32-.19l.08,0,.31-.19.08-.05,0,0,1.72,1.46,1.3,1.09a14.56,14.56,0,0,0,1.59-1.15,14.17,14.17,0,0,0,1.41-1.38l-.86-1.46-1.14-1.95v0l.07-.06.24-.28.06-.07.24-.28,0-.06.11-.13.1-.12.05-.06.23-.3,0-.07.22-.29,0-.08,0,0,2.14.71,1.61.53a13.33,13.33,0,0,0,1.05-1.66,13.65,13.65,0,0,0,.79-1.8l-1.34-1Zm-9.19-1.92a10.88,10.88,0,1,1-.08-10.38A10.88,10.88,0,0,1,887.71,71.25Z"/><path class="cls-2" d="M494.61,223.75l0-.06a.69.69,0,0,1,0-.1c.05-.14.1-.28.14-.42a.3.3,0,0,0,0-.1c0-.14.09-.28.14-.42l0-.11h0a.56.56,0,0,0,0-.12c0-.08.05-.17.08-.26a.43.43,0,0,0,0,0s0,0,0,0,.05-.18.07-.27a.49.49,0,0,1,0-.11h0a.44.44,0,0,0,0-.1l.12-.44,0-.1c0-.14.06-.29.1-.43l0-.11s0,0,0-.06l2.73-.23,2-.17a15.28,15.28,0,0,0,.38-2.36,17.21,17.21,0,0,0,0-2.38l-2-.51-2.65-.7V214l0-.44s0-.07,0-.11,0-.3,0-.45a.28.28,0,0,0,0-.09,37.64,37.64,0,0,1,0-.39.38.38,0,0,0,0-.1c0-.14,0-.29-.05-.44l0-.11c0-.14,0-.29-.07-.44v-.11s0,0,0,0l2.44-1.23,1.84-.92a15.86,15.86,0,0,0-.53-2.32,16.42,16.42,0,0,0-.85-2.22l-2,.25-2.71.35,0-.06a1,1,0,0,1,0-.1l-.2-.4,0-.09c-.07-.14-.14-.27-.2-.4l0-.1h0a.93.93,0,0,1,0-.1l-.13-.24s0,0,0-.05l0,0-.06-.1c0-.05-.05-.09-.07-.14l-.06-.1h0l-.06-.09-.22-.39-.06-.09c-.07-.13-.15-.25-.23-.38l-.06-.09,0,0,1.76-2.09,1.32-1.57a15.19,15.19,0,0,0-1.39-1.93,15.79,15.79,0,0,0-1.67-1.7l-1.77,1-2.36,1.39,0,0a.6.6,0,0,1-.08-.08c-.11-.1-.22-.2-.34-.29a.27.27,0,0,0-.08-.07l-.34-.29-.07-.06-.16-.13-.15-.12-.07-.06-.36-.27-.09-.07-.35-.26-.09-.07,0,0,.86-2.59.64-1.95a14.83,14.83,0,0,0-2-1.27,16.86,16.86,0,0,0-2.18-1L482,190.29l-1.67,2.16-.06,0-.1,0-.42-.15-.1,0-.42-.14-.1,0h0l-.12,0-.26-.07,0,0h0l-.27-.08-.11,0h0l-.1,0-.44-.11-.1,0-.43-.1-.11,0h-.06l-.23-2.73-.17-2a16.58,16.58,0,0,0-2.36-.37,14.57,14.57,0,0,0-2.38,0l-.51,2-.7,2.65h-.13l-.45,0H470l-.45,0h-.09l-.2,0-.2,0H469l-.45.06h-.11l-.44.07-.11,0h0l-1.22-2.44L465.7,187a17.27,17.27,0,0,0-2.32.53,15.23,15.23,0,0,0-2.22.86l.25,2,.35,2.71-.06,0-.09,0-.41.19-.09.05-.4.2-.1.05h0l-.1.06-.24.12,0,0h0l0,0-.24.13-.1.06h0l-.09,0-.39.23-.09,0-.38.24-.09,0,0,0L456.64,193l-1.57-1.32a15.27,15.27,0,0,0-1.93,1.4,15.71,15.71,0,0,0-1.7,1.66l1,1.77,1.39,2.36,0,0a.46.46,0,0,1-.07.07l-.29.34-.07.08c-.1.11-.2.23-.29.35l-.06.07-.13.15-.12.16-.06.07-.28.36-.06.08-.27.36-.06.08,0,0-2.59-.86-1.95-.64a14.83,14.83,0,0,0-1.27,2,15.6,15.6,0,0,0-1,2.18L446.9,205l2.16,1.68,0,.05a.42.42,0,0,0,0,.1l-.15.42,0,.1c0,.14-.09.28-.14.43l0,.1h0s0,.07,0,.11a2,2,0,0,1-.08.26v.1l-.08.26,0,.12h0l0,.1-.12.43,0,.1c0,.15-.07.29-.1.44l0,.1s0,0,0,.06l-2.73.23-2,.18a18,18,0,0,0-.38,2.35,15.78,15.78,0,0,0,0,2.38l2,.52,2.65.69v0a.41.41,0,0,0,0,.11c0,.15,0,.3,0,.45s0,.07,0,.1,0,.3,0,.45,0,.06,0,.09a1.36,1.36,0,0,0,0,.2c0,.07,0,.13,0,.2s0,.06,0,.09l.06.45s0,.07,0,.1,0,.3.07.45,0,.06,0,.1a0,0,0,0,1,0,0l-2.44,1.23-1.84.92a15.57,15.57,0,0,0,.53,2.32,14.92,14.92,0,0,0,.86,2.23l2-.26,2.71-.34,0,0,0,.1c.06.13.12.27.19.4l.05.1c.06.13.13.26.2.4a.41.41,0,0,0,.05.09h0a.37.37,0,0,1,.05.11c.05.08.09.16.13.24l0,0,0,0,.06.11.07.13.06.11h0a.22.22,0,0,0,.05.08c.07.14.15.27.23.4l0,.08.23.39.06.08,0,0-1.76,2.1L448.26,232a16.95,16.95,0,0,0,3.06,3.63l1.77-1,2.36-1.38,0,0,.08.07.34.3.08.07.34.29.08.06.15.12.16.13.07.05a3.44,3.44,0,0,0,.36.28l.08.06.36.27.08.06,0,0-.86,2.59-.64,2a17.09,17.09,0,0,0,2,1.27,16.79,16.79,0,0,0,2.18,1l1.26-1.62,1.68-2.16.05,0,.1,0,.42.14.1,0,.43.14.1,0h0l.12,0,.26.08h.05l.05,0,.26.07.12,0h0l.09,0,.44.12.1,0,.44.1.1,0,.06,0,.23,2.72.18,2.05a16.44,16.44,0,0,0,2.35.37,17.23,17.23,0,0,0,2.38,0l.52-2,.69-2.64h.14l.44,0h.11l.45,0h.09l.2,0,.2,0h.09l.45-.05.1,0,.44-.06.11,0h0l1.23,2.44.92,1.84a16.24,16.24,0,0,0,2.33-.52,17.91,17.91,0,0,0,2.22-.86l-.26-2-.34-2.71,0,0,.1,0,.4-.19.1,0,.4-.2.09,0h0l.11-.06.23-.13.05,0,0,0,.24-.13.11-.06h0l.09-.06.38-.22.09-.06.38-.23.09-.06.05,0,2.1,1.76,1.57,1.32a16.21,16.21,0,0,0,3.63-3.06l-1-1.77-1.38-2.36,0,0,.07-.08.3-.34.07-.08.29-.34.05-.07a1,1,0,0,0,.13-.16l.13-.15.05-.07.28-.36.06-.08.27-.36.06-.09,0,0,2.59.86,2,.65a17.22,17.22,0,0,0,1.27-2,16.79,16.79,0,0,0,1-2.18l-1.62-1.26Zm-11.14-2.32a13.19,13.19,0,1,1-.09-12.59A13.18,13.18,0,0,1,483.47,221.43Z"/><path class="cls-3" d="M689.54,168.06,647,183.64l42.52,15.45v16l-60.78-23.11v-16.6l60.78-23.11Z"/><path class="cls-3" d="M735.29,120.82H753L710.9,241.09H693.15Z"/><path class="cls-3" d="M816.14,175.34v16.6l-60.78,23.11v-16l42.52-15.45-42.52-15.58V152.23Z"/><path class="cls-2" d="M1015.72,350.59l0-.06s0-.07,0-.11.11-.31.16-.46a.49.49,0,0,0,0-.11l.15-.46a.56.56,0,0,0,0-.12h0s0-.09,0-.13l.09-.28s0,0,0-.06,0,0,0-.05,0-.19.08-.29a.56.56,0,0,1,0-.12h0l0-.11.12-.48,0-.11c0-.16.08-.31.11-.47l0-.12s0,0,0-.06l3-.26,2.23-.19a16.66,16.66,0,0,0,.41-2.56,17.41,17.41,0,0,0,0-2.6l-2.16-.57-2.9-.76v-.15l0-.49a.41.41,0,0,1,0-.11c0-.17,0-.33,0-.49a.38.38,0,0,1,0-.1l0-.22a1.49,1.49,0,0,0,0-.21s0-.07,0-.1l-.06-.49s0-.08,0-.12,0-.32-.07-.48l0-.12a0,0,0,0,0,0,0l2.67-1.34,2-1a19.36,19.36,0,0,0-.58-2.54,16.4,16.4,0,0,0-.94-2.42l-2.22.28-3,.37,0-.06a1.17,1.17,0,0,1,0-.11l-.21-.43-.05-.11c-.07-.15-.15-.29-.22-.44a.47.47,0,0,1-.05-.1h0l-.06-.11c0-.09-.09-.18-.14-.27a.08.08,0,0,1,0,0l0,0a.75.75,0,0,0-.07-.12.64.64,0,0,0-.08-.14l-.06-.12h0l0-.11-.25-.42-.06-.1c-.08-.14-.17-.27-.26-.41l-.06-.1,0-.06,1.92-2.28,1.45-1.72a17.82,17.82,0,0,0-1.53-2.1,16.86,16.86,0,0,0-1.82-1.86l-1.93,1.13-2.58,1.51,0,0-.09-.08-.37-.32-.09-.08-.37-.32-.08-.06-.17-.14-.17-.13-.08-.07-.39-.3-.09-.07-.39-.29-.1-.07,0,0,.93-2.83.71-2.13a17.76,17.76,0,0,0-2.2-1.39,17.24,17.24,0,0,0-2.38-1.05L1002,314l-1.83,2.36-.06,0-.11,0-.46-.17-.11,0L999,316l-.11,0h0l-.12,0-.29-.08,0,0h-.06l-.28-.09-.13,0h0l-.11,0-.47-.13-.12,0-.47-.11-.12,0h-.06l-.25-3-.19-2.23a18.11,18.11,0,0,0-2.57-.41,17.39,17.39,0,0,0-2.6,0l-.57,2.17-.75,2.89h-.15l-.49,0h-.12l-.49,0h-.1l-.22,0-.21,0-.1,0-.49.06h-.11l-.49.08h-.15l-1.34-2.67-1-2a17.4,17.4,0,0,0-2.53.57,19.11,19.11,0,0,0-2.43.94l.28,2.23.37,3-.06,0-.1.05-.44.2-.11.05-.43.23a.31.31,0,0,0-.1,0h0l-.11.06-.27.14,0,0h0l0,0-.26.14-.12.07h0l-.1.06-.43.24-.09.06-.42.26-.1.06a.1.1,0,0,0-.05,0L974.24,317l-1.71-1.44a18.15,18.15,0,0,0-2.11,1.52,17.8,17.8,0,0,0-1.86,1.82l1.13,1.93,1.51,2.58,0,0-.08.08-.32.37-.08.09-.32.38-.06.07a1.15,1.15,0,0,1-.14.17l-.13.17-.06.08-.31.39-.06.09-.3.4-.06.09,0,0-2.83-.94-2.13-.7a17,17,0,0,0-1.39,2.2,19,19,0,0,0-1,2.37l1.77,1.38L966,332l0,.06a.76.76,0,0,0,0,.11c-.06.16-.11.31-.17.46l0,.11c-.06.16-.11.31-.16.47l0,.11h0a.93.93,0,0,0,0,.13l-.09.29s0,0,0,.05a.43.43,0,0,0,0,.05l-.08.29a.56.56,0,0,0,0,.12h0l0,.11c-.05.16-.09.32-.13.48l0,.11-.12.48,0,.11s0,0,0,.06l-3,.26-2.23.19a17.89,17.89,0,0,0-.41,2.57,17.39,17.39,0,0,0,0,2.6l2.17.56,2.89.76v0a.49.49,0,0,1,0,.12l0,.49s0,.08,0,.11,0,.33,0,.49,0,.07,0,.1,0,.15,0,.22l0,.22a.28.28,0,0,0,0,.09l.06.5s0,.07,0,.11,0,.32.07.49a.52.52,0,0,0,0,.11v0L962,347l-2,1a17.83,17.83,0,0,0,.57,2.54,19,19,0,0,0,.94,2.42l2.23-.28,3-.37,0,.06a.54.54,0,0,0,0,.11c.06.14.13.29.21.44a.47.47,0,0,0,0,.1c.07.15.14.29.22.44l0,.1h0l.07.12.14.26s0,0,0,.05l0,0,.06.12a1.09,1.09,0,0,1,.08.15l.07.11h0l.06.1c.08.14.16.28.25.42a.47.47,0,0,1,.05.1c.09.14.18.28.26.42l.06.09a.21.21,0,0,1,0,.06l-1.93,2.28-1.44,1.72a17.82,17.82,0,0,0,1.53,2.1,16.77,16.77,0,0,0,1.81,1.86l1.93-1.13,2.59-1.51,0,0,.09.08.37.33.08.07.38.32.08.06.17.14.17.14.07.06.39.3.09.07.4.29.09.07,0,0-.94,2.83-.7,2.14a17,17,0,0,0,2.2,1.38,17.3,17.3,0,0,0,2.38,1.06l1.37-1.78,1.84-2.35.05,0,.12,0,.45.16.12,0,.46.15.11,0h0l.12,0,.29.09h0l.05,0,.29.08.13,0h0l.1,0,.48.12.11,0,.48.11.11,0h.06l.26,3,.19,2.23a18.11,18.11,0,0,0,2.57.41,17.39,17.39,0,0,0,2.6,0l.57-2.17.75-2.89h.16a3.87,3.87,0,0,0,.48,0h.12l.49,0h.1l.21,0,.22,0h.1l.49-.07h.11l.49-.07.11,0h0l1.35,2.67,1,2a17.4,17.4,0,0,0,2.53-.57,16.52,16.52,0,0,0,2.43-.94l-.28-2.23-.37-3,0,0,.11-.05.44-.21.11-.05.43-.22.11-.06h0l.12-.06.26-.14,0,0,.05,0,.26-.15.11-.06h0l.1-.05.42-.25.1-.06.42-.26.1-.06,0,0,2.29,1.92,1.71,1.44a17,17,0,0,0,2.11-1.52,18.84,18.84,0,0,0,1.86-1.82l-1.13-1.93-1.52-2.58,0,0,.08-.09.32-.36.08-.09.31-.37a.27.27,0,0,1,.07-.08l.13-.17.14-.17.06-.08.3-.39.07-.09.29-.39.07-.1,0,0,2.84.94,2.13.7a18.2,18.2,0,0,0,1.39-2.2,17.81,17.81,0,0,0,1.05-2.37l-1.77-1.38Zm-12.17-2.54a14.4,14.4,0,1,1-.1-13.75A14.4,14.4,0,0,1,1003.55,348.05Z"/><circle class="cls-1" cx="443.26" cy="160.51" r="8.07"/><circle class="cls-1" cx="664.08" cy="36.87" r="8.07"/><circle class="cls-4" cx="497.71" cy="276.48" r="8.07"/><circle class="cls-1" cx="427.25" cy="176.45" r="5.18"/><circle class="cls-1" cx="848.97" cy="152.23" r="5.18"/><circle class="cls-1" cx="400.97" cy="313.72" r="5.18"/><circle class="cls-1" cx="648.25" cy="108.84" r="5.18"/><path class="cls-1" d="M91.93,703.57l0-.1a1.34,1.34,0,0,0,.07-.18c.09-.24.18-.49.26-.74l.06-.18c.09-.25.17-.5.25-.76l.06-.18h0l.06-.2c0-.16.1-.31.14-.47l0-.08a.29.29,0,0,1,0-.09l.14-.47a1.46,1.46,0,0,1,0-.2v0a1.21,1.21,0,0,1,0-.18c.07-.25.13-.51.2-.77,0-.06,0-.12,0-.18.07-.26.13-.51.19-.77a1.29,1.29,0,0,1,0-.19.36.36,0,0,0,0-.1l4.85-.42,3.63-.31a28.54,28.54,0,0,0,.66-4.17,27.21,27.21,0,0,0,0-4.23l-3.52-.93-4.71-1.23v0c0-.06,0-.13,0-.19,0-.27,0-.53,0-.8,0-.06,0-.12,0-.19,0-.26,0-.53-.07-.79,0-.06,0-.11,0-.16l0-.35c0-.12,0-.24,0-.36s0-.11,0-.16c0-.27-.07-.53-.1-.79l0-.19c0-.26-.07-.53-.11-.79l0-.19v0l4.33-2.18,3.27-1.65a29.59,29.59,0,0,0-2.46-8.07l-3.63.46-4.81.6-.05-.09a.89.89,0,0,0-.08-.17c-.11-.24-.22-.48-.34-.72l-.08-.17-.36-.71-.09-.17h0a1.74,1.74,0,0,1-.1-.19l-.23-.43a.2.2,0,0,1,0-.08l0-.07c0-.07-.07-.13-.1-.19l-.13-.24-.11-.19h0l-.1-.16c-.13-.23-.26-.46-.4-.69a1.4,1.4,0,0,0-.1-.16c-.13-.23-.27-.45-.41-.67l-.1-.17-.06-.08L91,661.41l2.35-2.78a28.35,28.35,0,0,0-5.44-6.45L84.76,654l-4.2,2.46,0,0-.14-.13-.6-.52-.14-.13-.61-.51L78.9,655l-.27-.22-.28-.22-.13-.1-.63-.49-.15-.12-.64-.47a.91.91,0,0,0-.16-.11l0,0,1.52-4.61,1.15-3.47a29.61,29.61,0,0,0-3.58-2.25,28.15,28.15,0,0,0-3.87-1.71l-2.24,2.88-3,3.84-.09,0-.18-.06-.75-.27-.17-.06-.76-.25-.18-.06h0l-.2-.07-.47-.14-.08,0-.08,0-.47-.13-.21-.06h0l-.18,0-.77-.2-.19,0-.77-.18-.19,0-.09,0-.42-4.85L60,637.74a27.39,27.39,0,0,0-4.18-.67A28.51,28.51,0,0,0,51.6,637l-.92,3.53-1.23,4.7h-.06l-.19,0-.79,0-.19,0-.8.06-.16,0-.35,0-.35,0-.16,0-.8.11-.18,0-.8.12-.18,0h0l-2.19-4.34-1.64-3.26a27.59,27.59,0,0,0-4.13.93,28.72,28.72,0,0,0-3.94,1.53l.45,3.62.61,4.82-.1,0-.17.08-.71.34-.17.08-.72.36-.16.09h0l-.18.1-.44.22-.07,0h0l-.08,0-.43.23-.18.11h0l-.17.09-.68.4-.16.1-.68.41-.16.11-.09,0-3.72-3.13-2.79-2.35A30,30,0,0,0,18.24,649a28.3,28.3,0,0,0-3,3l1.84,3.14,2.46,4.2,0,.05-.12.13-.53.6-.12.14-.52.62-.1.12-.23.28-.22.27a1.47,1.47,0,0,1-.1.13c-.17.21-.33.42-.49.64l-.11.14c-.17.21-.32.43-.48.65l-.11.15,0,0-4.61-1.52L8.23,660.6A28.49,28.49,0,0,0,6,664.18a29.41,29.41,0,0,0-1.71,3.87l2.88,2.24,3.84,3,0,.09a1.46,1.46,0,0,0-.07.19l-.27.74-.06.18c-.08.25-.17.5-.25.76l-.06.18h0l-.06.2c0,.16-.1.31-.14.47l0,.08a.29.29,0,0,0,0,.09l-.14.47-.06.2v0a1.09,1.09,0,0,1,0,.17c-.07.26-.14.52-.2.78l0,.18-.18.77,0,.19a.3.3,0,0,0,0,.1l-4.85.41-3.63.32a28.68,28.68,0,0,0-.72,8.4l3.53.93,4.7,1.22s0,0,0,.06a1.21,1.21,0,0,0,0,.19c0,.27,0,.53,0,.8,0,.06,0,.12,0,.18,0,.27,0,.53.07.8,0,0,0,.11,0,.16s0,.24,0,.36,0,.23,0,.35a1,1,0,0,0,0,.16c0,.26.06.53.1.8,0,.06,0,.12,0,.18l.12.79,0,.18s0,0,0,.06l-4.34,2.18-3.26,1.64a30.31,30.31,0,0,0,.93,4.13,29.36,29.36,0,0,0,1.53,3.95l3.62-.46,4.82-.6a.36.36,0,0,1,0,.09,1.3,1.3,0,0,1,.08.17c.12.24.23.48.34.72l.09.17c.11.24.23.47.36.71l.08.17h0l.1.19.23.43,0,.07,0,.08a1.18,1.18,0,0,0,.11.19c0,.08.08.16.13.24l.1.18v0l.09.16.41.69.09.16.42.68.1.15,0,.09-3.13,3.72-2.34,2.79a27.84,27.84,0,0,0,2.48,3.43,29.07,29.07,0,0,0,2.95,3l3.15-1.84,4.2-2.46,0,0,.14.13c.19.17.39.35.6.52a1.79,1.79,0,0,0,.14.13l.61.51.13.11.27.22.28.22.12.1.64.5.14.11.65.47.15.11,0,0-1.52,4.62-1.14,3.46a28.54,28.54,0,0,0,7.44,4l2.24-2.88,3-3.84.1,0,.18.07.74.26.19.06.75.25.18.06h0l.21.07.46.14.08,0,.09,0,.47.13.2.06h0l.18,0,.77.2.18,0,.78.18.18,0,.1,0,.42,4.85.31,3.63a29.25,29.25,0,0,0,8.41.71l.92-3.53,1.23-4.7h.25l.79-.05.19,0,.79-.06.17,0,.35,0,.35,0,.16,0,.8-.1.18,0,.79-.12.19,0h.05l2.19,4.34,1.64,3.26a29.2,29.2,0,0,0,4.13-.93,28.72,28.72,0,0,0,3.94-1.53L70,732.57l-.61-4.82.09,0,.18-.08.71-.34.18-.09.7-.35.17-.09h0l.19-.11.43-.22.08,0,.08,0,.42-.24.19-.1h0l.16-.09.69-.4.16-.1.68-.42.16-.1.09,0L78.46,728l2.79,2.35a29.66,29.66,0,0,0,6.45-5.44l-1.84-3.14-2.46-4.21,0,0,.13-.15c.18-.19.36-.39.53-.59l.12-.15.52-.6a1.47,1.47,0,0,1,.1-.13l.23-.28.22-.27.1-.13.49-.63.11-.15.47-.64.12-.16,0,0,4.61,1.52,3.47,1.14a28.73,28.73,0,0,0,2.25-3.57,28.21,28.21,0,0,0,1.72-3.87l-2.89-2.24Zm-19.79-4.13A23.44,23.44,0,1,1,72,677.08,23.45,23.45,0,0,1,72.14,699.44Z"/><path class="cls-3" d="M122.64,709.27v4.51H120.5v-1a2.6,2.6,0,0,1-2.41,1.11c-1.85,0-3-1-3-2.4s1-2.36,3.39-2.36h1.82c0-1-.58-1.56-1.82-1.56a3.79,3.79,0,0,0-2.28.74l-.82-1.61a6.15,6.15,0,0,1,3.41-1C121.25,705.76,122.64,706.88,122.64,709.27Zm-2.29,2v-.81h-1.57c-1.07,0-1.41.4-1.41.93s.49,1,1.29,1A1.68,1.68,0,0,0,120.35,711.28Z"/><path class="cls-3" d="M128.72,705.92h7v1.79h-7Zm0,3.64h7v1.8h-7Z"/><path class="cls-3" d="M148.82,709.27v4.51h-2.15v-1a2.59,2.59,0,0,1-2.41,1.11c-1.85,0-2.95-1-2.95-2.4s1-2.36,3.39-2.36h1.83c0-1-.59-1.56-1.83-1.56a3.76,3.76,0,0,0-2.27.74l-.82-1.61a6.09,6.09,0,0,1,3.4-1C147.42,705.76,148.82,706.88,148.82,709.27Zm-2.29,2v-.81H145c-1.07,0-1.41.4-1.41.93s.49,1,1.3,1A1.7,1.7,0,0,0,146.53,711.28Z"/><path class="cls-3" d="M150.33,712.46a1.43,1.43,0,0,1,2.85,0,1.43,1.43,0,1,1-2.85,0Z"/><path class="cls-3" d="M163.8,705.76v2.11l-.52,0a1.94,1.94,0,0,0-2.1,2.2v3.73h-2.29v-7.9h2.19v1A3.21,3.21,0,0,1,163.8,705.76Z"/><path class="cls-3" d="M172.79,710.47h-6a2.1,2.1,0,0,0,2.26,1.59,2.68,2.68,0,0,0,2-.76l1.22,1.32A4.12,4.12,0,0,1,169,713.9c-2.73,0-4.51-1.72-4.51-4.07a4,4,0,0,1,4.22-4.07,3.91,3.91,0,0,1,4.11,4.1C172.83,710,172.8,710.28,172.79,710.47Zm-6-1.33h3.89a2,2,0,0,0-3.89,0Z"/><path class="cls-3" d="M183,709.83A3.84,3.84,0,0,1,179,713.9a3.07,3.07,0,0,1-2.38-1v3.69h-2.29V705.88h2.19v.91a3.06,3.06,0,0,1,2.48-1A3.84,3.84,0,0,1,183,709.83Zm-2.33,0a2,2,0,1,0-2,2.19A2,2,0,0,0,180.64,709.83Z"/><path class="cls-3" d="M184.49,702.88h2.29v10.9h-2.29Z"/><path class="cls-3" d="M195.91,709.27v4.51h-2.15v-1a2.6,2.6,0,0,1-2.41,1.11c-1.85,0-2.95-1-2.95-2.4s1-2.36,3.39-2.36h1.82c0-1-.58-1.56-1.82-1.56a3.76,3.76,0,0,0-2.27.74l-.83-1.61a6.15,6.15,0,0,1,3.41-1C194.51,705.76,195.91,706.88,195.91,709.27Zm-2.3,2v-.81H192c-1.07,0-1.41.4-1.41.93s.49,1,1.29,1A1.68,1.68,0,0,0,193.61,711.28Z"/><path class="cls-3" d="M197.48,709.83a4.08,4.08,0,0,1,4.4-4.07,3.63,3.63,0,0,1,3.54,2l-1.77,1a2,2,0,0,0-1.78-1.09,2.19,2.19,0,0,0,0,4.38,2,2,0,0,0,1.78-1.09l1.77,1a3.67,3.67,0,0,1-3.54,2A4.08,4.08,0,0,1,197.48,709.83Z"/><path class="cls-3" d="M214.34,710.47h-6a2.1,2.1,0,0,0,2.26,1.59,2.68,2.68,0,0,0,2-.76l1.22,1.32a4.12,4.12,0,0,1-3.26,1.28c-2.73,0-4.51-1.72-4.51-4.07a4,4,0,0,1,4.22-4.07,3.91,3.91,0,0,1,4.11,4.1C214.38,710,214.35,710.28,214.34,710.47Zm-6-1.33h3.89a2,2,0,0,0-3.89,0Z"/><path class="cls-3" d="M215.92,709.75a12.46,12.46,0,0,1,1.84-6.87H220a14.17,14.17,0,0,0,0,13.75h-2.19A12.55,12.55,0,0,1,215.92,709.75Z"/><path class="cls-3" d="M225,701.41h2l-4.85,13.84h-2Z"/><path class="cls-3" d="M227.45,709.75a12.46,12.46,0,0,1,1.84-6.87h2.19a14.17,14.17,0,0,0,0,13.75h-2.19A12.55,12.55,0,0,1,227.45,709.75Z"/><path class="cls-3" d="M237.59,705.76v2.11l-.52,0a1.94,1.94,0,0,0-2.1,2.2v3.73h-2.29v-7.9h2.19v1A3.21,3.21,0,0,1,237.59,705.76Z"/><path class="cls-3" d="M241.73,701.41h2l-4.84,13.84h-2.05Z"/><path class="cls-3" d="M373.87,665.54H312a3.73,3.73,0,0,1-3.72-3.72h0A3.73,3.73,0,0,1,312,658.1h61.9a3.73,3.73,0,0,1,3.72,3.72h0A3.73,3.73,0,0,1,373.87,665.54Z"/><path class="cls-3" d="M405.85,665.54h-12.8a3.72,3.72,0,0,1-3.72-3.72h0a3.72,3.72,0,0,1,3.72-3.72h12.8a3.73,3.73,0,0,1,3.72,3.72h0A3.73,3.73,0,0,1,405.85,665.54Z"/><path class="cls-3" d="M206.78,690.88H194a3.72,3.72,0,0,1-3.72-3.71h0a3.72,3.72,0,0,1,3.72-3.72h12.8a3.72,3.72,0,0,1,3.72,3.72h0A3.72,3.72,0,0,1,206.78,690.88Z"/><path class="cls-3" d="M241.06,690.88h-10a3.71,3.71,0,0,1-3.71-3.71h0a3.71,3.71,0,0,1,3.71-3.72h10a3.71,3.71,0,0,1,3.71,3.72h0A3.71,3.71,0,0,1,241.06,690.88Z"/><path class="cls-3" d="M283.87,690.88H264.72a3.71,3.71,0,0,1-3.71-3.71h0a3.71,3.71,0,0,1,3.71-3.72h19.15a3.72,3.72,0,0,1,3.72,3.72h0A3.72,3.72,0,0,1,283.87,690.88Z"/><rect class="cls-3" x="317.56" y="643.68" width="30.35" height="7.44" rx="3.72"/><rect class="cls-3" x="375.81" y="643.68" width="37.88" height="7.44" rx="3.72"/><rect class="cls-3" x="219.49" y="669.03" width="41.52" height="7.44" rx="3.72"/><rect class="cls-3" x="282.05" y="669.03" width="24.39" height="7.44" rx="3.72"/><rect class="cls-3" x="176.83" y="654.61" width="67.95" height="7.44" rx="3.72"/><rect class="cls-3" x="255.86" y="654.61" width="23.79" height="7.44" rx="3.72"/><rect class="cls-3" x="194.2" y="640.19" width="36.24" height="7.44" rx="3.72"/><rect class="cls-3" x="240.07" y="640.19" width="51.72" height="7.44" rx="3.72"/><path class="cls-3" d="M241.06,633.21H228.17a3.72,3.72,0,0,1-3.71-3.72h0a3.71,3.71,0,0,1,3.71-3.72h12.89a3.71,3.71,0,0,1,3.71,3.72h0A3.72,3.72,0,0,1,241.06,633.21Z"/><path class="cls-3" d="M304.47,633.21H282.36a3.72,3.72,0,0,1-3.71-3.72h0a3.71,3.71,0,0,1,3.71-3.72h22.11a3.72,3.72,0,0,1,3.72,3.72h0A3.73,3.73,0,0,1,304.47,633.21Z"/><path class="cls-3" d="M201,618.79h-3.1a3.72,3.72,0,0,1-3.72-3.72h0a3.71,3.71,0,0,1,3.72-3.72H201a3.71,3.71,0,0,1,3.72,3.72h0A3.72,3.72,0,0,1,201,618.79Z"/><path class="cls-3" d="M280.33,618.79H221.45a3.72,3.72,0,0,1-3.71-3.72h0a3.71,3.71,0,0,1,3.71-3.72h58.88a3.71,3.71,0,0,1,3.71,3.72h0A3.72,3.72,0,0,1,280.33,618.79Z"/><path class="cls-3" d="M142.61,571.81h-5.93a3.72,3.72,0,0,1-3.72-3.72h0a3.72,3.72,0,0,1,3.72-3.72h5.93a3.73,3.73,0,0,1,3.72,3.72h0A3.73,3.73,0,0,1,142.61,571.81Z"/><path class="cls-3" d="M210.1,604.37H193.17a3.72,3.72,0,0,1-3.71-3.72h0a3.72,3.72,0,0,1,3.71-3.72H210.1a3.72,3.72,0,0,1,3.72,3.72h0A3.72,3.72,0,0,1,210.1,604.37Z"/><path class="cls-3" d="M273.68,604.37h-14.1a3.72,3.72,0,0,1-3.72-3.72h0a3.72,3.72,0,0,1,3.72-3.72h14.1a3.73,3.73,0,0,1,3.72,3.72h0A3.73,3.73,0,0,1,273.68,604.37Z"/><path class="cls-3" d="M195.14,590H154.41a3.72,3.72,0,0,1-3.72-3.72h0a3.72,3.72,0,0,1,3.72-3.72h40.73a3.73,3.73,0,0,1,3.72,3.72h0A3.73,3.73,0,0,1,195.14,590Z"/><path class="cls-3" d="M241.06,590H215.77a3.73,3.73,0,0,1-3.72-3.72h0a3.73,3.73,0,0,1,3.72-3.72h25.29a3.72,3.72,0,0,1,3.71,3.72h0A3.72,3.72,0,0,1,241.06,590Z"/><path class="cls-3" d="M286.53,590H270.76a3.72,3.72,0,0,1-3.71-3.72h0a3.72,3.72,0,0,1,3.71-3.72h15.77a3.73,3.73,0,0,1,3.72,3.72h0A3.73,3.73,0,0,1,286.53,590Z"/><path class="cls-3" d="M142.61,543H108.32a3.72,3.72,0,0,1-3.72-3.72h0a3.73,3.73,0,0,1,3.72-3.72h34.29a3.73,3.73,0,0,1,3.72,3.72h0A3.72,3.72,0,0,1,142.61,543Z"/><path class="cls-3" d="M199.8,575.53h-1.88a3.72,3.72,0,0,1-3.72-3.72h0a3.72,3.72,0,0,1,3.72-3.72h1.88a3.73,3.73,0,0,1,3.72,3.72h0A3.73,3.73,0,0,1,199.8,575.53Z"/><path class="cls-3" d="M302.72,575.53H226.09a3.72,3.72,0,0,1-3.72-3.72h0a3.72,3.72,0,0,1,3.72-3.72h76.63a3.73,3.73,0,0,1,3.72,3.72h0A3.73,3.73,0,0,1,302.72,575.53Z"/><path class="cls-3" d="M190.48,561.11H120.29a3.72,3.72,0,0,1-3.71-3.72h0a3.72,3.72,0,0,1,3.71-3.72h70.19a3.73,3.73,0,0,1,3.72,3.72h0A3.73,3.73,0,0,1,190.48,561.11Z"/><path class="cls-3" d="M241.06,561.11h-32.6a3.72,3.72,0,0,1-3.72-3.72h0a3.72,3.72,0,0,1,3.72-3.72h32.6a3.72,3.72,0,0,1,3.71,3.72h0A3.72,3.72,0,0,1,241.06,561.11Z"/><path class="cls-3" d="M272.13,561.11H259.58a3.72,3.72,0,0,1-3.72-3.72h0a3.72,3.72,0,0,1,3.72-3.72h12.55a3.73,3.73,0,0,1,3.72,3.72h0A3.73,3.73,0,0,1,272.13,561.11Z"/><path class="cls-2" d="M166.52,659.14l0-.06a.42.42,0,0,1,0-.1l.15-.42,0-.1c.05-.14.09-.28.14-.42l0-.11h0a.56.56,0,0,0,0-.12c0-.08.05-.17.08-.26s0,0,0,0l0,0c0-.09,0-.18.07-.27a.49.49,0,0,1,0-.11h0l0-.1c0-.15.07-.29.11-.44l0-.1c0-.14.07-.29.1-.43l0-.11,0-.06,2.72-.23,2.05-.18a16.22,16.22,0,0,0,.37-2.35,17.21,17.21,0,0,0,0-2.38l-2-.52-2.65-.69s0,0,0,0v-.11l0-.44a.41.41,0,0,0,0-.11c0-.15,0-.3,0-.45v-.09a1.23,1.23,0,0,1,0-.2l0-.19a.31.31,0,0,0,0-.1c0-.15,0-.29,0-.44l0-.11-.06-.44,0-.11a0,0,0,0,0,0,0l2.44-1.23,1.84-.92a14.66,14.66,0,0,0-.53-2.32,16.42,16.42,0,0,0-.85-2.22l-2,.25-2.71.35,0-.06a1,1,0,0,1,0-.1c-.07-.13-.13-.26-.19-.4l-.05-.09-.2-.4-.05-.1h0l-.05-.1-.13-.24s0,0,0,0l0,0-.06-.1a.61.61,0,0,0-.07-.14l-.06-.1h0l-.06-.09-.22-.39-.06-.09c-.07-.13-.15-.25-.23-.38l-.06-.09,0,0,1.76-2.1,1.32-1.56a15.19,15.19,0,0,0-1.39-1.93,15.79,15.79,0,0,0-1.67-1.7l-1.77,1-2.36,1.38,0,0a.27.27,0,0,1-.08-.07c-.11-.1-.22-.2-.34-.29a.27.27,0,0,0-.08-.07l-.34-.29-.07-.06-.16-.13-.15-.12-.07-.06-.36-.28-.08-.06-.36-.27-.09-.06,0,0,.86-2.59.64-2a14.83,14.83,0,0,0-2-1.27,15.6,15.6,0,0,0-2.18-1l-1.26,1.63-1.67,2.15h-.06l-.1,0-.42-.15-.1,0-.42-.15-.1,0h0l-.12,0-.26-.08h-.09l-.27-.08-.11,0h0l-.1,0-.44-.11-.1,0-.43-.1-.11,0H149l-.24-2.73-.17-2a18.27,18.27,0,0,0-2.35-.38,15.79,15.79,0,0,0-2.38,0l-.52,2-.7,2.65h-.13l-.45,0h-.11l-.45,0h-.09l-.2,0-.19,0h-.09l-.45.06h-.11l-.44.07h-.13l-1.23-2.44-.93-1.84a16.16,16.16,0,0,0-2.32.53,15.23,15.23,0,0,0-2.22.86l.26,2,.34,2.71-.06,0-.09,0-.41.19-.09,0-.4.21-.1,0h0l-.1.06-.24.12,0,0h0l0,0-.24.13-.1.06h0l-.09,0-.39.23-.09,0-.38.23-.09.06-.05,0-2.09-1.76L127,627a15.27,15.27,0,0,0-1.93,1.4,15.71,15.71,0,0,0-1.7,1.66l1,1.77,1.39,2.36,0,0-.06.07-.3.34-.07.08c-.1.11-.2.23-.29.35l-.06.07-.13.15-.12.16-.06.07-.27.35-.07.09-.27.36a.24.24,0,0,1-.06.08l0,0-2.59-.86-2-.64a14.83,14.83,0,0,0-1.27,2,15.54,15.54,0,0,0-1,2.18l1.62,1.26,2.16,1.68,0,0a.42.42,0,0,0,0,.1l-.15.42,0,.1c0,.14-.1.28-.14.43a.3.3,0,0,0,0,.1h0a.76.76,0,0,1,0,.11,2,2,0,0,1-.08.26v.1l-.08.26,0,.11v0l0,.1c0,.14-.08.29-.11.43l0,.1c0,.15-.07.29-.1.44l0,.1s0,0,0,.06l-2.73.23-2,.18a16.44,16.44,0,0,0-.37,2.35,14.58,14.58,0,0,0,0,2.38l2,.52,2.65.69v0a.41.41,0,0,0,0,.11c0,.15,0,.3,0,.45a.34.34,0,0,1,0,.1c0,.15,0,.3,0,.45s0,.06,0,.09,0,.13,0,.2,0,.13,0,.2,0,.06,0,.09l.06.45s0,.06,0,.1,0,.3.07.45a.44.44,0,0,0,0,.1v0l-2.44,1.23-1.84.92a17.27,17.27,0,0,0,.53,2.32,14.8,14.8,0,0,0,.86,2.22l2-.25,2.71-.34s0,0,0,0l.05.1c.06.13.12.27.19.4l0,.1.2.4a.41.41,0,0,0,0,.09h0l.06.1.12.25,0,0,0,0,.06.11.08.13a.54.54,0,0,0,0,.11h0a.56.56,0,0,1,.05.08,3.64,3.64,0,0,0,.23.39l.05.09.24.39,0,.08,0,.05-1.76,2.1-1.32,1.57a16.95,16.95,0,0,0,3.06,3.63l1.77-1,2.36-1.38,0,0,.07.07.34.3.08.06.35.3a.18.18,0,0,0,.07,0l.15.13.16.13.07.05.36.28.08.06.36.27.08.06,0,0-.86,2.59-.64,2a17.09,17.09,0,0,0,2,1.27,16.79,16.79,0,0,0,2.18,1l1.26-1.62,1.68-2.16.05,0,.1,0,.42.14.1,0,.43.14.1,0h0l.11,0,.26.08h0l.05,0,.26.07.12,0h0l.09,0,.44.12.1,0,.44.11.1,0h.06l.23,2.73.18,2a15.15,15.15,0,0,0,2.35.38,17.23,17.23,0,0,0,2.38,0l.52-2,.69-2.65H145l.45,0h.1l.45,0h.29l.2,0h.09l.45,0,.1,0,.44-.06.11,0h0L149,677l.92,1.84a14.78,14.78,0,0,0,2.33-.53,16.42,16.42,0,0,0,2.22-.85l-.26-2-.34-2.71.05,0,.1,0,.4-.19.1,0,.4-.2.09,0h0l.11-.06.24-.13,0,0,0,0,.24-.13.11-.06h0l.09-.06.39-.22.09-.06.38-.23.09-.06,0,0,2.09,1.76,1.57,1.32a15.64,15.64,0,0,0,3.63-3.06l-1-1.77L161.72,667l0,0,.07-.08.3-.34.07-.08.29-.34.06-.07.12-.16.13-.15.05-.07.28-.36.06-.08.27-.36.06-.09,0,0,2.6.86,1.95.64a17.09,17.09,0,0,0,1.27-2,16.79,16.79,0,0,0,1-2.18l-1.62-1.26Zm-11.14-2.33a13.18,13.18,0,1,1-.09-12.58A13.18,13.18,0,0,1,155.38,656.81Z"/><circle class="cls-1" cx="365.99" cy="684.26" r="8.07"/><circle class="cls-4" cx="209.62" cy="763.87" r="8.07"/><circle class="cls-1" cx="430.16" cy="696.23" r="5.18"/><circle class="cls-4" cx="505.76" cy="294.51" r="5.18"/><g id="Dashboard_Stats" data-name="Dashboard Stats"><g id="Cards"><g id="Card"><g id="Bg-3"><rect id="Bg-4" class="cls-5" x="455.63" y="218.67" width="514.75" height="514.75" rx="27.82"/></g></g></g></g><text class="cls-6" transform="translate(504.32 534.82) rotate(-0.12)">Business Credit Card</text><text class="cls-7" transform="translate(575.1 568.79) rotate(-0.12)">Odds of Approval:</text><text class="cls-8" transform="translate(639.88 679.97) rotate(-0.12)">Great!</text><path class="cls-9" d="M816.24,452.67H676a21.21,21.21,0,0,1-21.18-21.18V355.64A21.2,21.2,0,0,1,676,334.46H816.24a21.2,21.2,0,0,1,21.18,21.18v75.85A21.21,21.21,0,0,1,816.24,452.67ZM676,341.53a14.13,14.13,0,0,0-14.11,14.11v75.85A14.12,14.12,0,0,0,676,445.59H816.24a14.12,14.12,0,0,0,14.11-14.1V355.64a14.13,14.13,0,0,0-14.11-14.11Z"/><rect class="cls-4" x="592.86" y="275.65" width="175.52" height="111.14" rx="13.26"/><path class="cls-9" d="M750.74,390.33H610.51a21.2,21.2,0,0,1-21.18-21.18V293.3a21.2,21.2,0,0,1,21.18-21.18H750.74a21.2,21.2,0,0,1,21.18,21.18v75.85A21.2,21.2,0,0,1,750.74,390.33ZM610.51,279.19A14.13,14.13,0,0,0,596.4,293.3v75.85a14.12,14.12,0,0,0,14.11,14.1H750.74a14.12,14.12,0,0,0,14.11-14.1V293.3a14.13,14.13,0,0,0-14.11-14.11Z"/><rect class="cls-1" x="592.86" y="300.45" width="175.52" height="31.21"/><path class="cls-9" d="M768.38,335.2H592.86a3.53,3.53,0,0,1-3.53-3.54V300.45a3.53,3.53,0,0,1,3.53-3.54H768.38a3.53,3.53,0,0,1,3.54,3.54v31.21A3.53,3.53,0,0,1,768.38,335.2Zm-172-7.07H764.85V304H596.4Z"/><path class="cls-9" d="M668,359.67H609a3.54,3.54,0,1,1,0-7.07h59a3.54,3.54,0,0,1,0,7.07Z"/><path class="cls-9" d="M720.07,414.31H685.19a3.54,3.54,0,0,1,0-7.07h34.88a3.54,3.54,0,0,1,0,7.07Z"/><path class="cls-9" d="M754.94,434.4H685.19a3.54,3.54,0,0,1,0-7.07h69.75a3.54,3.54,0,1,1,0,7.07Z"/><path class="cls-1" d="M806.46,410.78a10,10,0,0,0-8.13,4.15,10,10,0,1,0,0,11.78,10,10,0,1,0,8.13-15.93Z"/><path class="cls-9" d="M806.46,434.4a13.62,13.62,0,0,1-8.13-2.71,13.58,13.58,0,1,1,0-21.74,13.58,13.58,0,1,1,8.13,24.45Zm-8.13-11.23h0a3.52,3.52,0,0,1,2.86,1.46,6.51,6.51,0,1,0,0-7.62,3.53,3.53,0,0,1-5.72,0,6.51,6.51,0,1,0,0,7.62A3.51,3.51,0,0,1,798.33,423.17Z"/><rect class="cls-10" x="533.22" y="601.4" width="372.47" height="15.32" rx="3.34"/><rect class="cls-11" x="533.22" y="601.4" width="295.03" height="15.32" rx="3.34"/><g id="Dashboard_Stats-2" data-name="Dashboard Stats"><g id="Cards-2" data-name="Cards"><g id="Card-2" data-name="Card"><g id="Bg-3-2" data-name="Bg-3"><rect id="Bg-4-2" data-name="Bg-4" class="cls-5" x="49.9" y="248.05" width="392.89" height="392.89" rx="21.24"/></g></g></g></g><line class="cls-12" x1="151.11" y1="485.89" x2="151.65" y2="485.89"/><line class="cls-13" x1="152.74" y1="485.89" x2="340.69" y2="485.48"/><line class="cls-12" x1="341.24" y1="485.48" x2="341.78" y2="485.48"/><circle class="cls-14" cx="246.45" cy="378.95" r="87.98" transform="translate(-167.67 197.72) rotate(-33.33)"/><path class="cls-1" d="M179.08,322.4a87.92,87.92,0,1,1,29.6,136,86.4,86.4,0,0,1-18.79-12.09A88,88,0,0,1,179.08,322.4Z"/><path class="cls-15" d="M189.89,446.35l35.49-42.29,28.19,27.53,3.54,34.67a87.61,87.61,0,0,1-67.22-19.91Z"/><circle class="cls-4" cx="246.45" cy="378.95" r="72.56" transform="translate(-198.96 301.82) rotate(-47.14)"/><text class="cls-16" transform="translate(210.84 398.9)">91</text><path class="cls-1" d="M250.42,453.64a7.71,7.71,0,1,1,1,10.86A7.71,7.71,0,0,1,250.42,453.64Z"/><path class="cls-1" d="M188.94,435.49a7.71,7.71,0,1,1,.95,10.86A7.71,7.71,0,0,1,188.94,435.49Z"/><g id="layer1"><g id="g135"><path id="path12" class="cls-17" d="M163.8,530H155a4.74,4.74,0,0,1-4.79-4.78v-8.84A4.8,4.8,0,0,1,155,511.6h8.84a4.8,4.8,0,0,1,4.79,4.79v8.84A4.74,4.74,0,0,1,163.8,530"/><path id="path14" class="cls-18" d="M140.85,549.88H131a5.34,5.34,0,0,1-5.35-5.35v-10A5.4,5.4,0,0,1,131,529.2h10a5.35,5.35,0,0,1,5.35,5.36v10a5.36,5.36,0,0,1-5.43,5.35"/><path id="path16" class="cls-19" d="M140,570.57h-6.08a3.25,3.25,0,0,1-3.24-3.25v-6.08a3.25,3.25,0,0,1,3.24-3.24H140a3.25,3.25,0,0,1,3.25,3.24v6.08a3.26,3.26,0,0,1-3.25,3.25"/><path id="path18" class="cls-20" d="M156.26,589.79H149a3.89,3.89,0,0,1-3.89-3.89v-7.22a3.89,3.89,0,0,1,3.89-3.89h7.22a3.89,3.89,0,0,1,3.89,3.89v7.22a3.84,3.84,0,0,1-3.89,3.89"/><path id="path20" class="cls-20" d="M182.62,533.66h-5A2.7,2.7,0,0,1,175,531v-5a2.71,2.71,0,0,1,2.68-2.68h5a2.7,2.7,0,0,1,2.67,2.68v5a2.58,2.58,0,0,1-2.67,2.67"/><path id="path22" class="cls-21" d="M291.79,537a2.84,2.84,0,0,0,0-5.68,2.84,2.84,0,1,0,0,5.68Z"/><path id="path24" class="cls-21" d="M186.92,567.65a2.22,2.22,0,0,1-1.95,1,2.21,2.21,0,0,1-2.35-2.35,1.9,1.9,0,0,1,.32-1.14l6.65-10.46-6.65-10.46a2.06,2.06,0,0,1-.32-1.14,2.3,2.3,0,0,1,2.35-2.35,2.46,2.46,0,0,1,2,1l5.43,8.6,5.52-8.6a2.33,2.33,0,0,1,2-1,2.3,2.3,0,0,1,1.22.32,2.33,2.33,0,0,1,1.14,2,1.84,1.84,0,0,1-.33,1.14l-6.65,10.46L202,565.13a1.84,1.84,0,0,1,.33,1.14,2.34,2.34,0,0,1-1.06,2,2.58,2.58,0,0,1-1.3.32,2.29,2.29,0,0,1-1.94-1l-5.52-8.52Z"/><path id="path26" class="cls-21" d="M210.68,543.88a14.32,14.32,0,1,1,0,21.33v12.25a2.39,2.39,0,0,1-2.35,2.27,2.44,2.44,0,0,1-2.35-2.27V542.75a2.39,2.39,0,0,1,2.35-2.27,2.33,2.33,0,0,1,2.35,2.27Zm9.49,1.14a9.57,9.57,0,1,0,9.57,9.57A9.39,9.39,0,0,0,220.17,545Z"/><path id="path28" class="cls-21" d="M275.24,552v14.36a2.39,2.39,0,0,1-2.35,2.27,2.33,2.33,0,0,1-2.35-2.27v-23.6a2.39,2.39,0,0,1,2.35-2.27,2.43,2.43,0,0,1,2.35,2.19,12,12,0,0,1,7.14-2.36,2.4,2.4,0,1,1,0,4.79C278.73,545.18,275.24,546.48,275.24,552Z"/><path id="path30" class="cls-21" d="M291.79,540.48a2.33,2.33,0,0,0-2.35,2.27v23.68a2.39,2.39,0,0,0,2.35,2.27,2.45,2.45,0,0,0,2.35-2.27V542.75a2.39,2.39,0,0,0-2.35-2.27Z"/><path id="path32" class="cls-21" d="M322,542.75a2.39,2.39,0,0,1,2.35-2.27,2.45,2.45,0,0,1,2.36,2.27v23.68a2.4,2.4,0,0,1-2.36,2.27,2.34,2.34,0,0,1-2.35-2.27V565.3a14.46,14.46,0,0,1-9.57,3.65,14.32,14.32,0,1,1,0-28.64A14.46,14.46,0,0,1,322,544Zm-9.57,21.41a9.57,9.57,0,1,0-9.57-9.57,9.49,9.49,0,0,0,9.57,9.57Z"/><path id="path34" class="cls-21" d="M350.76,552.32a7.52,7.52,0,0,0-7.39-7.38c-3.81,0-7.38,1.54-7.38,7.13v14.36a2.39,2.39,0,0,1-2.35,2.27,2.33,2.33,0,0,1-2.35-2.27V542.75a2.39,2.39,0,0,1,2.35-2.27,2.43,2.43,0,0,1,2.35,2.19,11.94,11.94,0,0,1,7.3-2.36c6.41,0,12.17,5,12.17,11.36v14.76a2.39,2.39,0,0,1-2.35,2.27,2.33,2.33,0,0,1-2.35-2.27Z"/><path id="path36" class="cls-21" d="M181.24,553.78c-.08-7.3-6.57-13.47-14.28-13.47A14.32,14.32,0,1,0,167,569a14,14,0,0,0,10-4.06,2.46,2.46,0,0,0,.81-1.78,2.41,2.41,0,0,0-2.35-2.36,2.53,2.53,0,0,0-1.87,1,8.8,8.8,0,0,1-6.49,2.51,9.46,9.46,0,0,1-9.49-7.79h21.66a.29.29,0,0,0,.24-.08,2.84,2.84,0,0,0,1.79-2.59ZM167,545a9.46,9.46,0,0,1,9.09,6.65H157.8A9.46,9.46,0,0,1,167,545Z"/><path id="path38" class="cls-21" d="M266.56,553.78c-.08-7.3-6.65-13.47-14.27-13.47a14.32,14.32,0,1,0,0,28.64,14,14,0,0,0,10-4.06,2.5,2.5,0,0,0,.81-1.78,2.42,2.42,0,0,0-2.36-2.36,2.51,2.51,0,0,0-1.86,1,8.8,8.8,0,0,1-6.49,2.51,9.46,9.46,0,0,1-9.49-7.79H264.7a3,3,0,0,0,1.86-2.67ZM252.29,545a9.44,9.44,0,0,1,9.08,6.65H243.12A9.48,9.48,0,0,1,252.29,545Z"/><path id="path40" class="cls-21" d="M360.49,568.7a.39.39,0,0,1-.41-.4v-4h-.89a.41.41,0,0,1,0-.81h2.6a.41.41,0,0,1,0,.81h-.9v4A.38.38,0,0,1,360.49,568.7Z"/><path id="path42" class="cls-21" d="M365.11,568.7c-.24,0-.32-.16-.4-.32l-1.14-3.25v3.17a.41.41,0,0,1-.81,0v-4.22a.55.55,0,0,1,.57-.57.6.6,0,0,1,.56.41l1.14,3.32,1.14-3.32a.6.6,0,0,1,.56-.41.55.55,0,0,1,.57.57v4.22a.41.41,0,0,1-.81,0v-3.17c-.16.49-.41,1.3-.65,2-.4,1.3-.49,1.3-.49,1.3.09.24-.08.32-.24.32Z"/></g></g><path class="cls-22" d="M931.27,289.19a32.08,32.08,0,0,0-3-10.72,4.7,4.7,0,0,1-.53-2.2c0-2,0-4,0-6.11a2.42,2.42,0,0,1,.78.87,37.41,37.41,0,0,1,6.63,16.35,12.39,12.39,0,0,0,.32,2.1v3.28c-1.11,0-2.22,0-3.32,0-.5,0-.73-.11-.69-.64s0-.84,0-1.26c.11-.1.23-.19.33-.3.38-.41,1.22-.82,1.09-1.18S931.81,289.29,931.27,289.19Z"/><path class="cls-23" d="M894.05,291c1.2,2.08,1.14,3.88-.18,5.42-.62.74-1.22,1-3,1.42l4.29,4.92c-1.08,0-2,0-2.9,0-.3,0-.42-.24-.57-.41-1.06-1.22-2.15-2.4-3.15-3.67a2,2,0,0,0-1.87-.85c-1.36.07-1.37,0-1.37,1.36,0,1,0,2,0,3,0,.44-.13.56-.54.53-.69-.06-1.57.27-2-.13s-.12-1.26-.12-1.92c0-3.57,0-7.14,0-10.7,0-.61.18-.74.75-.73,2.21,0,4.41,0,6.61,0A5.27,5.27,0,0,1,894.05,291Zm-6,4.65v0c.79,0,1.59,0,2.38,0a1.74,1.74,0,0,0,1.75-1.42,2,2,0,0,0-2.07-2.58c-1.43-.05-2.87,0-4.31,0-.42,0-.49.16-.48.52,0,1,0,2,0,3.05,0,.39.11.52.5.51C886.56,295.6,887.31,295.61,888.05,295.61Z"/><path class="cls-22" d="M909.05,259.27c0,.67.27,1.63-.06,1.92s-1.21-.23-1.84-.4a33.11,33.11,0,0,0-10.43-1.19,33.7,33.7,0,0,0-9,1.7c-.65.22-.8.1-.77-.56,0-.94,0-1.88,0-2.82a.63.63,0,0,1,.52-.74,37.06,37.06,0,0,1,12.68-1.58,39.12,39.12,0,0,1,8.18,1.33c.57.14.86.37.78,1a10,10,0,0,0,0,1.34Z"/><path class="cls-23" d="M931.27,289.19c.54.1,1.36-.29,1.56.2s-.71.77-1.09,1.18c-.1.11-.22.2-.33.3l-4.83,4.29c-.42.37,0,.51.18.67,2,2.08,4.06,4.14,6.09,6.21.18.17.34.35.64.67-1.2,0-2.24,0-3.28,0-.24,0-.36-.25-.51-.4-1.58-1.58-3.17-3.15-4.72-4.75-.4-.42-.59-.42-1.1-.07a3.67,3.67,0,0,0-1.67,3.77c.14,1.45,0,1.46-1.43,1.46-1.2,0-1.2,0-1.2-1.2,0-3.84,0-7.68,0-11.52,0-.58.14-.81.74-.75s1.41-.18,1.79.13.12,1.16.13,1.77c0,1.58,0,3.16,0,4.76.39,0,.52-.27.68-.45a69.75,69.75,0,0,1,6.37-5.91,1.11,1.11,0,0,1,.81-.3A3.29,3.29,0,0,0,931.27,289.19Z"/><path class="cls-23" d="M904.79,291a5.69,5.69,0,0,0,.52-1c.23-.7.69-.81,1.38-.87a1.81,1.81,0,0,1,2,1.28c1.87,3.86,3.84,7.68,5.78,11.52.11.21.2.43.36.77h-2.71c-.26,0-.3-.21-.4-.38-.23-.43-.47-.86-.71-1.29-.66-1.57-.66-1.57-2.35-1.57-.42,0-.83,0-1.25,0-1.21,0-2.42,0-3.64,0a.6.6,0,0,0-.61.42c-.4.79-.83,1.58-1.21,2.38a.67.67,0,0,1-.73.46c-.74,0-1.48,0-2.21,0-.13-.28.07-.45.16-.63,1.22-2.43,2.46-4.86,3.68-7.29.11-.22.2-.45.3-.67Zm.22,5.38c-.16.25-.49.53-.32.8s.54.07.82.06h3.65l-1.32-2.83-.93-2.53L906.5,293Z"/><path class="cls-24" d="M904.79,291l-1.6,3.14c-.49-.62-1-1.24-1.47-1.86-.32-.41-.76-.7-.58-1.4.09-.36-.46-.71-.71-1.08-.42-.63-.77-.08-1.1.11a8.67,8.67,0,0,1-5.28,1.06,5.27,5.27,0,0,0-4.06-1.67,11.71,11.71,0,0,1-3-3.84,8.45,8.45,0,0,1,.63-8.62,8.33,8.33,0,0,1,7.76-3.81,8,8,0,0,1,4.34,1.57c.18.13.37.23.56.35l1.48,1.62c.36.52.77,1,1.09,1.57a8.78,8.78,0,0,1-.75,9.54c-.16.21-.65.42-.29.78s.46,1.09,1.21,1c.3-.05.44.13.61.32A7.88,7.88,0,0,0,904.79,291Zm-5.33-15a7.57,7.57,0,0,0-7.13-.85,7.87,7.87,0,0,0-4.49,8.58c1,4.28,4.18,6.81,8.71,5.82a8,8,0,0,0,6.13-8.84,4.37,4.37,0,0,0-1.71-3.32A3.34,3.34,0,0,0,899.46,276Z"/><path class="cls-25" d="M865.1,291.58c-.05,1.18-.05,1.18-1.26,1.18-.65,0-1.29,0-1.93,0s-.88-.12-.86-.83a36.83,36.83,0,0,1,4.52-16.89,32.92,32.92,0,0,1,3-4.58c.27.1.18.3.18.45,0,2.05,0,4.11,0,6.16a2.21,2.21,0,0,1-.21,1,33.21,33.21,0,0,0-3.27,11.1c-.62-.08-.85.19-.77.8a4.31,4.31,0,0,1,0,.95C864.44,291.42,864.61,291.65,865.1,291.58Z"/><path class="cls-22" d="M925.93,275.41a46,46,0,0,0-2.93-4,32.6,32.6,0,0,0-11.4-8.73,1.22,1.22,0,0,1-.89-1.39c.08-.81,0-1.63,0-2.45s0-.92.84-.58a38.61,38.61,0,0,1,9.08,5.3,41.42,41.42,0,0,1,4.94,4.7,1.21,1.21,0,0,1,.34.87C925.92,271.16,925.93,273.17,925.93,275.41Z"/><path class="cls-22" d="M870.47,275c-.24-.23-.15-.47-.15-.67,0-1.69,0-3.37,0-5.06a1.7,1.7,0,0,1,.43-1.21,36.72,36.72,0,0,1,10.45-8.21c1-.55,2.09-1,3.16-1.49.56-.24.68-.07.66.48q0,1.49,0,3a.82.82,0,0,1-.58.89,33.17,33.17,0,0,0-13.54,11.7Z"/><path class="cls-23" d="M865.1,291.58c-.49.07-.66-.16-.62-.64a4.31,4.31,0,0,0,0-.95c-.08-.61.15-.88.77-.8a3.13,3.13,0,0,0,1.1.07c3.55,0,7.09,0,10.64,0,.55,0,.71.14.7.7,0,1.61,0,1.61-1.64,1.61-1,0-1.93,0-2.9,0-.55,0-.71.12-.7.69,0,3.22,0,6.44,0,9.66,0,.61-.08.93-.79.84s-1.44.19-1.8-.12-.13-1.22-.13-1.86q0-4.27,0-8.55c0-.51-.12-.68-.65-.66C867.78,291.59,866.44,291.58,865.1,291.58Z"/><path class="cls-26" d="M901.79,276.56l-1.48-1.62,6.8-8.32c.45,1,.85,2,1.26,2.92.16.38-.16.54-.35.74Z"/><path class="cls-24" d="M907.45,299.51c.42,0,.83,0,1.25,0,1.69,0,1.69,0,2.35,1.57a1.92,1.92,0,0,1-2.86-.62C908,300.12,907.7,299.82,907.45,299.51Z"/><path class="cls-24" d="M907.84,294.39l1.32,2.83h-3.58l-.57-.85c.5-1.12,1-2.23,1.49-3.34C907,293.45,907.23,294.09,907.84,294.39Z"/><path class="cls-27" d="M907.84,294.39c-.61-.3-.87-.94-1.34-1.36.11-.32.22-.64.41-1.17Z"/><path class="cls-27" d="M905,296.37l.57.85h-.07c-.28,0-.69.15-.82-.06S904.85,296.62,905,296.37Z"/><path class="cls-26" d="M901,277.34c-2,2-4,4.08-6,6.13-.36.37-.57.37-.95,0-1.31-1.21-2.65-2.38-4.06-3.65l3.62-1.55c.36-.15.35.1.41.31.26,1,.53,1.95.84,3.1l4.67-5.76A3.34,3.34,0,0,1,901,277.34Z"/></g></g></svg>